<mxfile host="app.diagrams.net" modified="2023-12-11T14:34:31.960Z" agent="Mozilla/5.0 (Windows NT 10.0; Win64; x64; rv:109.0) Gecko/20100101 Firefox/115.0" etag="uE_lv2mp_oHNyHQ4QZig" version="22.1.7" type="github">
  <diagram id="xdrHgkj7yBfwqIOZpFS4" name="Page-1">
    <mxGraphModel dx="2049" dy="1117" grid="1" gridSize="10" guides="1" tooltips="1" connect="1" arrows="1" fold="1" page="1" pageScale="1" pageWidth="850" pageHeight="1100" background="#FFFFFF" math="0" shadow="0">
      <root>
        <mxCell id="0" />
        <mxCell id="2" value="Layer 0" parent="0" />
        <mxCell id="3" value="&lt;div style=&#39;width: 114.333336px;height:auto;word-break: break-word;&#39;&gt;&lt;div align=&quot;center&quot;&gt;&lt;span style=&quot;font-size:12px;font-family:Arial; line-height: 0;&quot;&gt;&lt;span style=&quot; line-height: normal;&quot;&gt;Information Structure&lt;/span&gt;&lt;/span&gt;&lt;/div&gt;&lt;/div&gt;" style="shape=rect;shadow=0;strokeWidth=2;fillColor=#fff2cc;strokeColor=#000000;opacity=100.0;html=1;nl2Br=0;verticalAlign=middle;align=center;spacingLeft=1.3333334;spacingRight=0;whiteSpace=wrap;gliffyId=3004;" parent="2" vertex="1">
          <mxGeometry x="475" y="148.6666717529297" width="120" height="60" as="geometry" />
        </mxCell>
        <mxCell id="4" value="&lt;div style=&#39;width: 114.333336px;height:auto;word-break: break-word;&#39;&gt;&lt;div align=&quot;center&quot;&gt;&lt;span style=&quot;font-size:12px;font-family:Arial; line-height: 0;&quot;&gt;&lt;span style=&quot; line-height: normal;&quot;&gt;Information Set&lt;/span&gt;&lt;/span&gt;&lt;/div&gt;&lt;/div&gt;" style="shape=rect;shadow=0;strokeWidth=2;fillColor=#fff2cc;strokeColor=#000000;opacity=100.0;html=1;nl2Br=0;verticalAlign=middle;align=center;spacingLeft=1.3333334;spacingRight=0;whiteSpace=wrap;gliffyId=3187;" parent="2" vertex="1">
          <mxGeometry x="890" y="328.66668701171875" width="120" height="60" as="geometry" />
        </mxCell>
        <mxCell id="5" value="&lt;div style=&#39;width: 114.333336px;height:auto;word-break: break-word;&#39;&gt;&lt;div align=&quot;center&quot;&gt;&lt;span style=&quot;font-size:12px;font-family:Arial; line-height: 0;&quot;&gt;&lt;span style=&quot; line-height: normal;&quot;&gt;Exchange Instrument&lt;/span&gt;&lt;/span&gt;&lt;/div&gt;&lt;/div&gt;" style="shape=rect;shadow=0;strokeWidth=2;fillColor=#f4cccc;strokeColor=#000000;opacity=100.0;html=1;nl2Br=0;verticalAlign=middle;align=center;spacingLeft=1.3333334;spacingRight=0;whiteSpace=wrap;gliffyId=2968;" parent="2" vertex="1">
          <mxGeometry x="890" y="488.66668701171875" width="120" height="60" as="geometry" />
        </mxCell>
        <mxCell id="6" value="&lt;div style=&#39;width: 114.333336px;height:auto;word-break: break-word;&#39;&gt;&lt;div align=&quot;center&quot;&gt;&lt;span style=&quot;font-size:12px;font-family:Arial; line-height: 0;&quot;&gt;&lt;span style=&quot; line-height: normal;&quot;&gt;Questionnaire&lt;/span&gt;&lt;/span&gt;&lt;/div&gt;&lt;/div&gt;" style="shape=rect;shadow=0;strokeWidth=2;fillColor=#f4cccc;strokeColor=#000000;opacity=100.0;html=1;nl2Br=0;verticalAlign=middle;align=center;spacingLeft=1.3333334;spacingRight=0;whiteSpace=wrap;gliffyId=3175;" parent="2" vertex="1">
          <mxGeometry x="735" y="648.1666870117188" width="120" height="60" as="geometry" />
        </mxCell>
        <mxCell id="7" value="&lt;div style=&#39;width: 114.333336px;height:auto;word-break: break-word;&#39;&gt;&lt;div align=&quot;center&quot;&gt;&lt;span style=&quot;font-size:12px;font-family:Arial; line-height: 0;&quot;&gt;&lt;span style=&quot; line-height: normal;&quot;&gt;Data Harvest&lt;/span&gt;&lt;/span&gt;&lt;/div&gt;&lt;/div&gt;" style="shape=rect;shadow=0;strokeWidth=2;fillColor=#f4cccc;strokeColor=#000000;opacity=100.0;html=1;nl2Br=0;verticalAlign=middle;align=center;spacingLeft=1.3333334;spacingRight=0;whiteSpace=wrap;gliffyId=3177;" parent="2" vertex="1">
          <mxGeometry x="890" y="648.1666870117188" width="120" height="60" as="geometry" />
        </mxCell>
        <mxCell id="8" value="&lt;div style=&#39;width: 114.333336px;height:auto;word-break: break-word;&#39;&gt;&lt;div align=&quot;center&quot;&gt;&lt;span style=&quot;font-size:12px;font-family:Arial; line-height: 0;&quot;&gt;&lt;span style=&quot; line-height: 0;&quot;&gt;&lt;span style=&quot; line-height: normal;&quot;&gt;Dissemination&lt;/span&gt; &lt;span style=&quot; line-height: normal;&quot;&gt;Instrument&lt;/span&gt;&lt;/span&gt;&lt;/span&gt;&lt;/div&gt;&lt;/div&gt;" style="shape=rect;shadow=0;strokeWidth=2;fillColor=#f4cccc;strokeColor=#000000;opacity=100.0;html=1;nl2Br=0;verticalAlign=middle;align=center;spacingLeft=1.3333334;spacingRight=0;whiteSpace=wrap;gliffyId=3179;" parent="2" vertex="1">
          <mxGeometry x="1045" y="648.1666870117188" width="120" height="60" as="geometry" />
        </mxCell>
        <mxCell id="9" value="&lt;div style=&#39;width: 114.333336px;height:auto;word-break: break-word;&#39;&gt;&lt;div align=&quot;center&quot;&gt;&lt;span style=&quot;font-size:12px;font-family:Arial; line-height: 0;&quot;&gt;&lt;span style=&quot; line-height: normal;&quot;&gt;Register&lt;/span&gt;&lt;/span&gt;&lt;/div&gt;&lt;/div&gt;" style="shape=rect;shadow=0;strokeWidth=2;fillColor=#f4cccc;strokeColor=#000000;opacity=100.0;html=1;nl2Br=0;verticalAlign=middle;align=center;spacingLeft=1.3333334;spacingRight=0;whiteSpace=wrap;gliffyId=3183;" parent="2" vertex="1">
          <mxGeometry x="890" y="168.6666717529297" width="120" height="60" as="geometry" />
        </mxCell>
        <mxCell id="10" value="&lt;div style=&#39;width: 114.333336px;height:auto;word-break: break-word;&#39;&gt;&lt;div align=&quot;center&quot;&gt;&lt;span style=&quot;font-size:12px;font-family:Arial; line-height: 0;&quot;&gt;&lt;span style=&quot; line-height: normal;&quot;&gt;Provision Agreement&lt;/span&gt;&lt;/span&gt;&lt;/div&gt;&lt;/div&gt;" style="shape=rect;shadow=0;strokeWidth=2;fillColor=#f4cccc;strokeColor=#000000;opacity=100.0;html=1;nl2Br=0;verticalAlign=middle;align=center;spacingLeft=1.3333334;spacingRight=0;whiteSpace=wrap;gliffyId=2970;" parent="2" vertex="1">
          <mxGeometry x="475" y="318.66668701171875" width="120" height="60" as="geometry" />
        </mxCell>
        <mxCell id="11" value="&lt;div style=&#39;width: 114.333336px;height:auto;word-break: break-word;&#39;&gt;&lt;div align=&quot;center&quot;&gt;&lt;span style=&quot;font-size:12px;font-family:Arial; line-height: 0;&quot;&gt;&lt;span style=&quot; line-height: normal;&quot;&gt;Information Consumer&lt;/span&gt;&lt;/span&gt;&lt;/div&gt;&lt;/div&gt;" style="shape=rect;shadow=0;strokeWidth=2;fillColor=#f4cccc;strokeColor=#000000;opacity=100.0;html=1;nl2Br=0;verticalAlign=middle;align=center;spacingLeft=1.3333334;spacingRight=0;whiteSpace=wrap;gliffyId=3171;" parent="2" vertex="1">
          <mxGeometry x="235" y="258.66668701171875" width="120" height="60" as="geometry" />
        </mxCell>
        <mxCell id="12" value="&lt;div style=&#39;width: 114.333336px;height:auto;word-break: break-word;&#39;&gt;&lt;div align=&quot;center&quot;&gt;&lt;span style=&quot;font-size:12px;font-family:Arial; line-height: 0;&quot;&gt;&lt;span style=&quot; line-height: normal;&quot;&gt;Role&lt;/span&gt;&lt;/span&gt;&lt;/div&gt;&lt;/div&gt;" style="shape=rect;shadow=0;strokeWidth=2;fillColor=#f6b26b;strokeColor=#000000;opacity=100.0;html=1;nl2Br=0;verticalAlign=middle;align=center;spacingLeft=1.3333334;spacingRight=0;whiteSpace=wrap;gliffyId=3224;" parent="2" vertex="1">
          <mxGeometry x="50" y="318.66668701171875" width="120" height="60" as="geometry" />
        </mxCell>
        <mxCell id="13" value="&lt;div style=&#39;width: 114.333336px;height:auto;word-break: break-word;&#39;&gt;&lt;div align=&quot;center&quot;&gt;&lt;span style=&quot;font-size:12px;font-family:Arial; line-height: 0;&quot;&gt;&lt;span style=&quot; line-height: normal;&quot;&gt;Information Provider&lt;/span&gt;&lt;/span&gt;&lt;/div&gt;&lt;/div&gt;" style="shape=rect;shadow=0;strokeWidth=2;fillColor=#f4cccc;strokeColor=#000000;opacity=100.0;html=1;nl2Br=0;verticalAlign=middle;align=center;spacingLeft=1.3333334;spacingRight=0;whiteSpace=wrap;gliffyId=3173;" parent="2" vertex="1">
          <mxGeometry x="235" y="378.66668701171875" width="120" height="60" as="geometry" />
        </mxCell>
        <mxCell id="14" value="&lt;div style=&#39;width: 114.333336px;height:auto;word-break: break-word;&#39;&gt;&lt;div align=&quot;center&quot;&gt;&lt;span style=&quot;font-size:12px;font-family:Arial; line-height: 0;&quot;&gt;&lt;span style=&quot; line-height: normal;&quot;&gt;Presentation&lt;/span&gt;&lt;/span&gt;&lt;/div&gt;&lt;/div&gt;" style="shape=rect;shadow=0;strokeWidth=2;fillColor=#f4cccc;strokeColor=#000000;opacity=100.0;html=1;nl2Br=0;verticalAlign=middle;align=center;spacingLeft=1.3333334;spacingRight=0;whiteSpace=wrap;gliffyId=2972;" parent="2" vertex="1">
          <mxGeometry x="1220" y="328.66668701171875" width="120" height="60" as="geometry" />
        </mxCell>
        <mxCell id="15" value="&lt;div style=&#39;width: 114.333336px;height:auto;word-break: break-word;&#39;&gt;&lt;div align=&quot;center&quot;&gt;&lt;span style=&quot;font-size:12px;font-family:Arial; line-height: 0;&quot;&gt;&lt;span style=&quot; line-height: normal;&quot;&gt;Product&lt;/span&gt;&lt;/span&gt;&lt;/div&gt;&lt;/div&gt;" style="shape=rect;shadow=0;strokeWidth=2;fillColor=#f4cccc;strokeColor=#000000;opacity=100.0;html=1;nl2Br=0;verticalAlign=middle;align=center;spacingLeft=1.3333334;spacingRight=0;whiteSpace=wrap;gliffyId=2976;" parent="2" vertex="1">
          <mxGeometry x="1220" y="488.66668701171875" width="120" height="60" as="geometry" />
        </mxCell>
        <mxCell id="16" value="&lt;div style=&#39;width: 114.333336px;height:auto;word-break: break-word;&#39;&gt;&lt;div align=&quot;center&quot;&gt;&lt;span style=&quot;font-size:12px;font-family:Arial; line-height: 0;&quot;&gt;&lt;span style=&quot; line-height: normal;&quot;&gt;Statistical Program&lt;/span&gt;&lt;/span&gt;&lt;/div&gt;&lt;/div&gt;" style="shape=rect;shadow=0;strokeWidth=2;fillColor=#cfe2f3;strokeColor=#000000;opacity=100.0;html=1;nl2Br=0;verticalAlign=middle;align=center;spacingLeft=1.3333334;spacingRight=0;whiteSpace=wrap;gliffyId=3244;" parent="2" vertex="1">
          <mxGeometry x="1220" y="648.1666870117188" width="120" height="60" as="geometry" />
        </mxCell>
        <mxCell id="17" value="&lt;div style=&#39;width: 114.333336px;height:auto;word-break: break-word;&#39;&gt;&lt;div align=&quot;center&quot;&gt;&lt;span style=&quot;font-size:12px;font-family:Arial; line-height: 0;&quot;&gt;&lt;span style=&quot; line-height: normal;&quot;&gt;Rule&lt;/span&gt;&lt;/span&gt;&lt;/div&gt;&lt;/div&gt;" style="shape=rect;shadow=0;strokeWidth=2;fillColor=#cfe2f3;strokeColor=#000000;opacity=100.0;html=1;nl2Br=0;verticalAlign=middle;align=center;spacingLeft=1.3333334;spacingRight=0;whiteSpace=wrap;gliffyId=3279;" parent="2" vertex="1">
          <mxGeometry x="985" y="785" width="120" height="60" as="geometry" />
        </mxCell>
        <mxCell id="18" value="&lt;div style=&#39;width: 114.333336px;height:auto;word-break: break-word;&#39;&gt;&lt;div align=&quot;center&quot;&gt;&lt;span style=&quot;font-size:12px;font-family:Arial; line-height: 0;&quot;&gt;&lt;span style=&quot; line-height: normal;&quot;&gt;Questionnaire Specification&lt;/span&gt;&lt;/span&gt;&lt;/div&gt;&lt;/div&gt;" style="shape=rect;shadow=0;strokeWidth=2;fillColor=#f4cccc;strokeColor=#000000;opacity=100.0;html=1;nl2Br=0;verticalAlign=middle;align=center;spacingLeft=1.3333334;spacingRight=0;whiteSpace=wrap;gliffyId=3030;" parent="2" vertex="1">
          <mxGeometry x="475" y="648.1666870117188" width="120" height="60" as="geometry" />
        </mxCell>
        <mxCell id="19" value="&lt;div style=&#39;width: 114.333336px;height:auto;word-break: break-word;&#39;&gt;&lt;div align=&quot;center&quot;&gt;&lt;span style=&quot;font-size:12px;font-family:Arial; line-height: 0;&quot;&gt;&lt;span style=&quot; line-height: normal;&quot;&gt;Question Block&lt;/span&gt;&lt;/span&gt;&lt;/div&gt;&lt;/div&gt;" style="shape=rect;shadow=0;strokeWidth=2;fillColor=#f4cccc;strokeColor=#000000;opacity=100.0;html=1;nl2Br=0;verticalAlign=middle;align=center;spacingLeft=1.3333334;spacingRight=0;whiteSpace=wrap;gliffyId=3261;" parent="2" vertex="1">
          <mxGeometry x="250" y="785" width="120" height="60" as="geometry" />
        </mxCell>
        <mxCell id="20" value="&lt;div style=&#39;width: 114.333336px;height:auto;word-break: break-word;&#39;&gt;&lt;div align=&quot;center&quot;&gt;&lt;span style=&quot;font-size:12px;font-family:Arial; line-height: 0;&quot;&gt;&lt;span style=&quot; line-height: normal;&quot;&gt;Instance Question Block&lt;/span&gt;&lt;/span&gt;&lt;/div&gt;&lt;/div&gt;" style="shape=rect;shadow=0;strokeWidth=2;fillColor=#f4cccc;strokeColor=#000000;opacity=100.0;html=1;nl2Br=0;verticalAlign=middle;align=center;spacingLeft=1.3333334;spacingRight=0;whiteSpace=wrap;gliffyId=3263;" parent="2" vertex="1">
          <mxGeometry x="250" y="945" width="120" height="60" as="geometry" />
        </mxCell>
        <mxCell id="21" value="&lt;div style=&#39;width: 114.333336px;height:auto;word-break: break-word;&#39;&gt;&lt;div align=&quot;center&quot;&gt;&lt;span style=&quot;font-size:12px;font-family:Arial; line-height: 0;&quot;&gt;&lt;span style=&quot; line-height: normal;&quot;&gt;Questionnaire Component&lt;/span&gt;&lt;/span&gt;&lt;/div&gt;&lt;/div&gt;" style="shape=rect;shadow=0;strokeWidth=2;fillColor=#f4cccc;strokeColor=#000000;opacity=100.0;html=1;nl2Br=0;verticalAlign=middle;align=center;spacingLeft=1.3333334;spacingRight=0;whiteSpace=wrap;gliffyId=3270;" parent="2" vertex="1">
          <mxGeometry x="475" y="785" width="120" height="60" as="geometry" />
        </mxCell>
        <mxCell id="22" value="&lt;div style=&#39;width: 114.333336px;height:auto;word-break: break-word;&#39;&gt;&lt;div align=&quot;center&quot;&gt;&lt;span style=&quot;font-size:12px;font-family:Arial; line-height: 0;&quot;&gt;&lt;span style=&quot; line-height: normal;&quot;&gt;Questionnaire Logic&lt;/span&gt;&lt;/span&gt;&lt;/div&gt;&lt;/div&gt;" style="shape=rect;shadow=0;strokeWidth=2;fillColor=#f4cccc;strokeColor=#000000;opacity=100.0;html=1;nl2Br=0;verticalAlign=middle;align=center;spacingLeft=1.3333334;spacingRight=0;whiteSpace=wrap;gliffyId=3277;" parent="2" vertex="1">
          <mxGeometry x="735" y="785" width="120" height="60" as="geometry" />
        </mxCell>
        <mxCell id="23" value="&lt;div style=&#39;width: 114.333336px;height:auto;word-break: break-word;&#39;&gt;&lt;div align=&quot;center&quot;&gt;&lt;span style=&quot;font-size:12px;font-family:Arial; line-height: 0;&quot;&gt;&lt;span style=&quot; line-height: normal;&quot;&gt;Instance Question&lt;/span&gt;&lt;/span&gt;&lt;/div&gt;&lt;/div&gt;" style="shape=rect;shadow=0;strokeWidth=2;fillColor=#f4cccc;strokeColor=#000000;opacity=100.0;html=1;nl2Br=0;verticalAlign=middle;align=center;spacingLeft=1.3333334;spacingRight=0;whiteSpace=wrap;gliffyId=3281;" parent="2" vertex="1">
          <mxGeometry x="475" y="945" width="120" height="60" as="geometry" />
        </mxCell>
        <mxCell id="24" value="&lt;div style=&#39;width: 114.333336px;height:auto;word-break: break-word;&#39;&gt;&lt;div align=&quot;center&quot;&gt;&lt;span style=&quot;font-size:12px;font-family:Arial; line-height: 0;&quot;&gt;&lt;span style=&quot; line-height: normal;&quot;&gt;Instance Statement&lt;/span&gt;&lt;/span&gt;&lt;/div&gt;&lt;/div&gt;" style="shape=rect;shadow=0;strokeWidth=2;fillColor=#f4cccc;strokeColor=#000000;opacity=100.0;html=1;nl2Br=0;verticalAlign=middle;align=center;spacingLeft=1.3333334;spacingRight=0;whiteSpace=wrap;gliffyId=3283;" parent="2" vertex="1">
          <mxGeometry x="675" y="945" width="120" height="60" as="geometry" />
        </mxCell>
        <mxCell id="25" value="&lt;div style=&#39;width: 114.333336px;height:auto;word-break: break-word;&#39;&gt;&lt;div align=&quot;center&quot;&gt;&lt;span style=&quot;font-size:12px;font-family:Arial; line-height: 0;&quot;&gt;&lt;span style=&quot; line-height: normal;&quot;&gt;Question&lt;/span&gt;&lt;/span&gt;&lt;/div&gt;&lt;/div&gt;" style="shape=rect;shadow=0;strokeWidth=2;fillColor=#f4cccc;strokeColor=#000000;opacity=100.0;html=1;nl2Br=0;verticalAlign=middle;align=center;spacingLeft=1.3333334;spacingRight=0;whiteSpace=wrap;gliffyId=3286;" parent="2" vertex="1">
          <mxGeometry x="475" y="1095" width="120" height="60" as="geometry" />
        </mxCell>
        <mxCell id="26" value="&lt;div style=&#39;width: 114.333336px;height:auto;word-break: break-word;&#39;&gt;&lt;div align=&quot;center&quot;&gt;&lt;span style=&quot;font-size:12px;font-family:Arial; line-height: 0;&quot;&gt;&lt;span style=&quot; line-height: normal;&quot;&gt;Statement&lt;/span&gt;&lt;/span&gt;&lt;/div&gt;&lt;/div&gt;" style="shape=rect;shadow=0;strokeWidth=2;fillColor=#f4cccc;strokeColor=#000000;opacity=100.0;html=1;nl2Br=0;verticalAlign=middle;align=center;spacingLeft=1.3333334;spacingRight=0;whiteSpace=wrap;gliffyId=3288;" parent="2" vertex="1">
          <mxGeometry x="675" y="1095" width="120" height="60" as="geometry" />
        </mxCell>
        <mxCell id="27" value="&lt;div style=&#39;width: 114.333336px;height:auto;word-break: break-word;&#39;&gt;&lt;div align=&quot;center&quot;&gt;&lt;span style=&quot;font-size:12px;font-family:Arial; line-height: 0;&quot;&gt;&lt;span style=&quot; line-height: normal;&quot;&gt;Instance Variable&lt;/span&gt;&lt;/span&gt;&lt;/div&gt;&lt;/div&gt;" style="shape=rect;shadow=0;strokeWidth=2;fillColor=#d9ead3;strokeColor=#000000;opacity=100.0;html=1;nl2Br=0;verticalAlign=middle;align=center;spacingLeft=1.3333334;spacingRight=0;whiteSpace=wrap;gliffyId=3290;" parent="2" vertex="1">
          <mxGeometry x="250" y="1095" width="120" height="60" as="geometry" />
        </mxCell>
        <mxCell id="28" value="&lt;div style=&#39;width: 114.333336px;height:auto;word-break: break-word;&#39;&gt;&lt;div align=&quot;center&quot;&gt;&lt;span style=&quot; line-height: normal;&quot;&gt;Conceptual Variable&lt;/span&gt;&lt;/div&gt;&lt;/div&gt;" style="shape=rect;shadow=0;strokeWidth=2;fillColor=#d9ead3;strokeColor=#000000;opacity=100.0;html=1;nl2Br=0;verticalAlign=middle;align=center;spacingLeft=1.3333334;spacingRight=0;whiteSpace=wrap;gliffyId=3292;" parent="2" vertex="1">
          <mxGeometry x="370" y="1235" width="120" height="60" as="geometry" />
        </mxCell>
        <mxCell id="29" value="&lt;div style=&#39;width: 114.333336px;height:auto;word-break: break-word;&#39;&gt;&lt;div align=&quot;center&quot;&gt;&lt;span style=&quot; line-height: normal;&quot;&gt;Value Domain&lt;/span&gt;&lt;/div&gt;&lt;/div&gt;" style="shape=rect;shadow=0;strokeWidth=2;fillColor=#d9ead3;strokeColor=#000000;opacity=100.0;html=1;nl2Br=0;verticalAlign=middle;align=center;spacingLeft=1.3333334;spacingRight=0;whiteSpace=wrap;gliffyId=3294;" parent="2" vertex="1">
          <mxGeometry x="570" y="1235" width="120" height="60" as="geometry" />
        </mxCell>
        <mxCell id="30" value="&lt;div style=&#39;width: 114.333336px;height:auto;word-break: break-word;&#39;&gt;&lt;div align=&quot;center&quot;&gt;&lt;span style=&quot;font-size:12px;font-family:Arial; line-height: 0;&quot;&gt;&lt;span style=&quot; line-height: normal;&quot;&gt;Ouput Specification&lt;/span&gt;&lt;/span&gt;&lt;/div&gt;&lt;/div&gt;" style="shape=rect;shadow=0;strokeWidth=2;fillColor=#f4cccc;strokeColor=#000000;opacity=100.0;html=1;nl2Br=0;verticalAlign=middle;align=center;spacingLeft=1.3333334;spacingRight=0;whiteSpace=wrap;gliffyId=3181;" parent="2" vertex="1">
          <mxGeometry x="1460" y="408.66668701171875" width="120" height="60" as="geometry" />
        </mxCell>
        <mxCell id="31" value="&lt;div style=&#39;width: 114.333336px;height:auto;word-break: break-word;&#39;&gt;&lt;div align=&quot;center&quot;&gt;&lt;span style=&quot;font-size:12px;font-family:Arial; line-height: 0;&quot;&gt;&lt;span style=&quot; line-height: normal;&quot;&gt;Exchange Specification&lt;/span&gt;&lt;/span&gt;&lt;/div&gt;&lt;/div&gt;" style="shape=rect;shadow=0;strokeWidth=2;fillColor=#f4cccc;strokeColor=#000000;opacity=100.0;html=1;nl2Br=0;verticalAlign=middle;align=center;spacingLeft=1.3333334;spacingRight=0;whiteSpace=wrap;gliffyId=3032;" parent="2" vertex="1">
          <mxGeometry x="475" y="488.66668701171875" width="120" height="60" as="geometry" />
        </mxCell>
        <mxCell id="32" style="shape=note;size=10;shadow=0;strokeWidth=1;fillColor=#FFFFFF;strokeColor=#000000;opacity=100.0;gliffyId=3159;" parent="2" vertex="1">
          <mxGeometry x="370" y="1370" width="968" height="46" as="geometry" />
        </mxCell>
        <mxCell id="33" style="shape=filledEdge;strokeWidth=2;strokeColor=#000000;fillColor=none;startArrow=none;startFill=0;startSize=6;endArrow=diamond;endFill=0;endSize=12;rounded=0;html=1;nl2Br=0;gliffyId=3036;edgeStyle=orthogonalEdgeStyle;" parent="2" source="3" target="10" edge="1">
          <mxGeometry width="100" height="100" relative="1" as="geometry">
            <Array as="points">
              <mxPoint x="535" y="208.66668701171875" />
              <mxPoint x="535" y="245.33334350585938" />
              <mxPoint x="535" y="282.0000305175781" />
              <mxPoint x="535" y="318.66668701171875" />
            </Array>
          </mxGeometry>
        </mxCell>
        <mxCell id="34" value="&lt;div style=&#39;width: 27.6875px;height:auto;word-break: break-word;&#39;&gt;&lt;div align=&quot;center&quot;&gt;&lt;span style=&quot;font-size:12px;font-family:Arial; line-height: 0;&quot;&gt;&lt;span style=&quot; line-height: normal;&quot;&gt;0,1&lt;/span&gt;&lt;/span&gt;&lt;/div&gt;&lt;/div&gt;" style="text;html=1;nl2Br=0;points=[];labelBackgroundColor=#FFFFFF;html=1;nl2Br=0;verticalAlign=middle;align=center;spacingLeft=0.0;spacingRight=0;gliffyId=3115;" parent="33" vertex="1">
          <mxGeometry x="-0.8181818181818181" relative="1" as="geometry">
            <mxPoint y="-20" as="offset" />
          </mxGeometry>
        </mxCell>
        <mxCell id="35" value="&lt;div style=&#39;width: 29.0125px;height:auto;word-break: break-word;&#39;&gt;&lt;div align=&quot;center&quot;&gt;&lt;span style=&quot;font-size:12px;font-family:Arial; line-height: 0;&quot;&gt;&lt;span style=&quot; line-height: normal;&quot;&gt;0..*&lt;/span&gt;&lt;/span&gt;&lt;/div&gt;&lt;/div&gt;" style="text;html=1;nl2Br=0;points=[];labelBackgroundColor=#FFFFFF;html=1;nl2Br=0;verticalAlign=middle;align=center;spacingLeft=0.0;spacingRight=0;gliffyId=3038;" parent="33" vertex="1">
          <mxGeometry x="0.8328304026935893" relative="1" as="geometry">
            <mxPoint y="-20" as="offset" />
          </mxGeometry>
        </mxCell>
        <mxCell id="36" value="&lt;div style=&#39;width: 98.3875px;height:auto;word-break: break-word;&#39;&gt;&lt;div align=&quot;center&quot;&gt;&lt;span style=&quot;font-size:12px;font-family:Arial; line-height: 0;&quot;&gt;&lt;span style=&quot; line-height: normal;&quot;&gt;specifies agreed&lt;/span&gt;&lt;/span&gt;&lt;/div&gt;&lt;/div&gt;" style="text;html=1;nl2Br=0;points=[];labelBackgroundColor=#FFFFFF;html=1;nl2Br=0;verticalAlign=middle;align=center;spacingLeft=0.0;spacingRight=0;gliffyId=3039;" parent="33" vertex="1">
          <mxGeometry x="-0.030513332282920858" relative="1" as="geometry">
            <mxPoint as="offset" />
          </mxGeometry>
        </mxCell>
        <mxCell id="37" style="shape=filledEdge;strokeWidth=2;strokeColor=#000000;fillColor=none;startArrow=none;startFill=0;startSize=6;endArrow=diamond;endFill=0;endSize=12;rounded=0;html=1;nl2Br=0;gliffyId=3247;edgeStyle=orthogonalEdgeStyle;" parent="2" source="15" target="16" edge="1">
          <mxGeometry width="100" height="100" relative="1" as="geometry">
            <Array as="points">
              <mxPoint x="1280" y="548.6666870117188" />
              <mxPoint x="1280" y="581.8333740234375" />
              <mxPoint x="1280" y="615" />
              <mxPoint x="1280" y="648.1666870117188" />
            </Array>
          </mxGeometry>
        </mxCell>
        <mxCell id="38" value="&lt;div style=&#39;width: 29.0125px;height:auto;word-break: break-word;&#39;&gt;&lt;div align=&quot;center&quot;&gt;&lt;span style=&quot;font-size:12px;font-family:Arial; line-height: 0;&quot;&gt;&lt;span style=&quot; line-height: normal;&quot;&gt;0..*&lt;/span&gt;&lt;/span&gt;&lt;/div&gt;&lt;/div&gt;" style="text;html=1;nl2Br=0;points=[];labelBackgroundColor=#FFFFFF;html=1;nl2Br=0;verticalAlign=middle;align=center;spacingLeft=0.0;spacingRight=0;gliffyId=3248;" parent="37" vertex="1">
          <mxGeometry x="-0.6582914572864322" relative="1" as="geometry">
            <mxPoint y="20" as="offset" />
          </mxGeometry>
        </mxCell>
        <mxCell id="39" value="&lt;div style=&#39;width: 29.0125px;height:auto;word-break: break-word;&#39;&gt;&lt;div align=&quot;center&quot;&gt;&lt;span style=&quot;font-size:12px;font-family:Arial; line-height: 0;&quot;&gt;&lt;span style=&quot; line-height: normal;&quot;&gt;1..*&lt;/span&gt;&lt;/span&gt;&lt;/div&gt;&lt;/div&gt;" style="text;html=1;nl2Br=0;points=[];labelBackgroundColor=#FFFFFF;html=1;nl2Br=0;verticalAlign=middle;align=center;spacingLeft=0.0;spacingRight=0;gliffyId=3249;" parent="37" vertex="1">
          <mxGeometry x="0.6080402010050252" relative="1" as="geometry">
            <mxPoint y="20" as="offset" />
          </mxGeometry>
        </mxCell>
        <mxCell id="40" value="&lt;div style=&#39;width: 30.35px;height:auto;word-break: break-word;&#39;&gt;&lt;div align=&quot;center&quot;&gt;&lt;span style=&quot;font-size:12px;font-family:Arial; line-height: 0;&quot;&gt;&lt;span style=&quot; line-height: normal;&quot;&gt;has&lt;/span&gt;&lt;/span&gt;&lt;/div&gt;&lt;/div&gt;" style="text;html=1;nl2Br=0;points=[];labelBackgroundColor=#FFFFFF;html=1;nl2Br=0;verticalAlign=middle;align=center;spacingLeft=0.0;spacingRight=0;gliffyId=3250;" parent="37" vertex="1">
          <mxGeometry x="-0.030513332282920858" relative="1" as="geometry">
            <mxPoint as="offset" />
          </mxGeometry>
        </mxCell>
        <mxCell id="41" style="shape=filledEdge;strokeWidth=2;strokeColor=#000000;fillColor=none;startArrow=none;startFill=0;startSize=6;endArrow=diamond;endFill=0;endSize=12;rounded=0;html=1;nl2Br=0;gliffyId=3212;edgeStyle=orthogonalEdgeStyle;" parent="2" source="4" target="9" edge="1">
          <mxGeometry width="100" height="100" relative="1" as="geometry">
            <Array as="points">
              <mxPoint x="953" y="328.711669921875" />
              <mxPoint x="953" y="295.36334228515625" />
              <mxPoint x="953" y="262.0150146484375" />
              <mxPoint x="953" y="228.6666717529297" />
            </Array>
          </mxGeometry>
        </mxCell>
        <mxCell id="42" value="&lt;div style=&#39;width: 29.0125px;height:auto;word-break: break-word;&#39;&gt;&lt;div align=&quot;center&quot;&gt;&lt;span style=&quot;font-size:12px;font-family:Arial; line-height: 0;&quot;&gt;&lt;span style=&quot; line-height: normal;&quot;&gt;1..*&lt;/span&gt;&lt;/span&gt;&lt;/div&gt;&lt;/div&gt;" style="text;html=1;nl2Br=0;points=[];labelBackgroundColor=#FFFFFF;html=1;nl2Br=0;verticalAlign=middle;align=center;spacingLeft=0.0;spacingRight=0;gliffyId=3213;" parent="41" vertex="1">
          <mxGeometry x="-0.8000899392955266" relative="1" as="geometry">
            <mxPoint y="-20" as="offset" />
          </mxGeometry>
        </mxCell>
        <mxCell id="43" value="&lt;div style=&#39;width: 29.0125px;height:auto;word-break: break-word;&#39;&gt;&lt;div align=&quot;center&quot;&gt;&lt;span style=&quot;font-size:12px;font-family:Arial; line-height: 0;&quot;&gt;&lt;span style=&quot; line-height: normal;&quot;&gt;0..*&lt;/span&gt;&lt;/span&gt;&lt;/div&gt;&lt;/div&gt;" style="text;html=1;nl2Br=0;points=[];labelBackgroundColor=#FFFFFF;html=1;nl2Br=0;verticalAlign=middle;align=center;spacingLeft=0.0;spacingRight=0;gliffyId=3214;" parent="41" vertex="1">
          <mxGeometry x="0.5393074674244451" relative="1" as="geometry">
            <mxPoint y="-20" as="offset" />
          </mxGeometry>
        </mxCell>
        <mxCell id="44" value="&lt;div style=&#39;width: 30.35px;height:auto;word-break: break-word;&#39;&gt;&lt;div align=&quot;center&quot;&gt;&lt;span style=&quot;font-size:12px;font-family:Arial; line-height: 0;&quot;&gt;&lt;span style=&quot; line-height: normal;&quot;&gt;has&lt;/span&gt;&lt;/span&gt;&lt;/div&gt;&lt;/div&gt;" style="text;html=1;nl2Br=0;points=[];labelBackgroundColor=#FFFFFF;html=1;nl2Br=0;verticalAlign=middle;align=center;spacingLeft=0.0;spacingRight=0;gliffyId=3215;" parent="41" vertex="1">
          <mxGeometry x="-0.030513332282920858" relative="1" as="geometry">
            <mxPoint as="offset" />
          </mxGeometry>
        </mxCell>
        <mxCell id="45" style="shape=filledEdge;strokeWidth=2;strokeColor=#000000;fillColor=none;startArrow=none;startFill=0;startSize=6;endArrow=open;endFill=0;endSize=10;rounded=0;html=1;nl2Br=0;gliffyId=3216;edgeStyle=orthogonalEdgeStyle;" parent="2" source="31" target="5" edge="1">
          <mxGeometry width="100" height="100" relative="1" as="geometry">
            <Array as="points">
              <mxPoint x="595" y="531.0930786132812" />
              <mxPoint x="693.3333129882812" y="531.0930786132812" />
              <mxPoint x="791.6666870117188" y="531.0930786132812" />
              <mxPoint x="890" y="531.0930786132812" />
            </Array>
          </mxGeometry>
        </mxCell>
        <mxCell id="46" value="&lt;div style=&#39;width: 29.0125px;height:auto;word-break: break-word;&#39;&gt;&lt;div align=&quot;center&quot;&gt;&lt;span style=&quot;font-size:12px;font-family:Arial; line-height: 0;&quot;&gt;&lt;span style=&quot; line-height: normal;&quot;&gt;1..*&lt;/span&gt;&lt;/span&gt;&lt;/div&gt;&lt;/div&gt;" style="text;html=1;nl2Br=0;points=[];labelBackgroundColor=#FFFFFF;html=1;nl2Br=0;verticalAlign=middle;align=center;spacingLeft=0.0;spacingRight=0;gliffyId=3217;" parent="45" vertex="1">
          <mxGeometry x="-0.8576271186440678" relative="1" as="geometry">
            <mxPoint y="20" as="offset" />
          </mxGeometry>
        </mxCell>
        <mxCell id="47" value="&lt;div style=&#39;width: 29.0125px;height:auto;word-break: break-word;&#39;&gt;&lt;div align=&quot;center&quot;&gt;&lt;span style=&quot;font-size:12px;font-family:Arial; line-height: 0;&quot;&gt;&lt;span style=&quot; line-height: normal;&quot;&gt;0..*&lt;/span&gt;&lt;/span&gt;&lt;/div&gt;&lt;/div&gt;" style="text;html=1;nl2Br=0;points=[];labelBackgroundColor=#FFFFFF;html=1;nl2Br=0;verticalAlign=middle;align=center;spacingLeft=0.0;spacingRight=0;gliffyId=3218;" parent="45" vertex="1">
          <mxGeometry x="0.7966101694915255" relative="1" as="geometry">
            <mxPoint y="20" as="offset" />
          </mxGeometry>
        </mxCell>
        <mxCell id="48" value="&lt;div style=&#39;width: 57.6875px;height:auto;word-break: break-word;&#39;&gt;&lt;div align=&quot;center&quot;&gt;&lt;span style=&quot;font-size:12px;font-family:Arial; line-height: 0;&quot;&gt;&lt;span style=&quot; line-height: normal;&quot;&gt;specifies&lt;/span&gt;&lt;/span&gt;&lt;/div&gt;&lt;/div&gt;" style="text;html=1;nl2Br=0;points=[];labelBackgroundColor=#FFFFFF;html=1;nl2Br=0;verticalAlign=middle;align=center;spacingLeft=0.0;spacingRight=0;gliffyId=3219;" parent="45" vertex="1">
          <mxGeometry x="-0.07118644067796609" relative="1" as="geometry">
            <mxPoint as="offset" />
          </mxGeometry>
        </mxCell>
        <mxCell id="49" style="shape=filledEdge;strokeWidth=2;strokeColor=#000000;fillColor=none;startArrow=none;startFill=0;startSize=6;endArrow=diamond;endFill=0;endSize=12;rounded=0;html=1;nl2Br=0;gliffyId=3300;exitX=0.5;exitY=0.0;exitPerimeter=0;entryX=0.7071067690849304;entryY=1.0;entryPerimeter=0;" parent="2" source="29" target="25" edge="1">
          <mxGeometry width="100" height="100" relative="1" as="geometry">
            <Array as="points">
              <mxPoint x="630" y="1235" />
              <mxPoint x="559.852783203125" y="1155" />
            </Array>
          </mxGeometry>
        </mxCell>
        <mxCell id="50" value="&lt;div style=&#39;width: 29.0125px;height:auto;word-break: break-word;&#39;&gt;&lt;div align=&quot;center&quot;&gt;&lt;span style=&quot;font-size:12px;font-family:Arial; line-height: 0;&quot;&gt;&lt;span style=&quot; line-height: normal;&quot;&gt;1..*&lt;/span&gt;&lt;/span&gt;&lt;/div&gt;&lt;/div&gt;" style="text;html=1;nl2Br=0;points=[];labelBackgroundColor=#FFFFFF;html=1;nl2Br=0;verticalAlign=middle;align=center;spacingLeft=0.0;spacingRight=0;gliffyId=3301;" parent="49" vertex="1">
          <mxGeometry x="-0.8576271186440678" relative="1" as="geometry">
            <mxPoint y="-20" as="offset" />
          </mxGeometry>
        </mxCell>
        <mxCell id="51" value="&lt;div style=&#39;width: 29.0125px;height:auto;word-break: break-word;&#39;&gt;&lt;div align=&quot;center&quot;&gt;&lt;span style=&quot;font-size:12px;font-family:Arial; line-height: 0;&quot;&gt;&lt;span style=&quot; line-height: normal;&quot;&gt;0..*&lt;/span&gt;&lt;/span&gt;&lt;/div&gt;&lt;/div&gt;" style="text;html=1;nl2Br=0;points=[];labelBackgroundColor=#FFFFFF;html=1;nl2Br=0;verticalAlign=middle;align=center;spacingLeft=0.0;spacingRight=0;gliffyId=3302;" parent="49" vertex="1">
          <mxGeometry x="0.29701151441171114" relative="1" as="geometry">
            <mxPoint y="-20" as="offset" />
          </mxGeometry>
        </mxCell>
        <mxCell id="52" value="&lt;div style=&#39;width: 30.35px;height:auto;word-break: break-word;&#39;&gt;&lt;div align=&quot;center&quot;&gt;&lt;span style=&quot;font-size:12px;font-family:Arial; line-height: 0;&quot;&gt;&lt;span style=&quot; line-height: normal;&quot;&gt;has&lt;/span&gt;&lt;/span&gt;&lt;/div&gt;&lt;/div&gt;" style="text;html=1;nl2Br=0;points=[];labelBackgroundColor=#FFFFFF;html=1;nl2Br=0;verticalAlign=middle;align=center;spacingLeft=0.0;spacingRight=0;gliffyId=3303;" parent="49" vertex="1">
          <mxGeometry x="-0.22742474973208238" relative="1" as="geometry">
            <mxPoint as="offset" />
          </mxGeometry>
        </mxCell>
        <mxCell id="53" style="shape=filledEdge;strokeWidth=2;strokeColor=#000000;fillColor=none;startArrow=none;startFill=0;startSize=6;endArrow=diamond;endFill=0;endSize=12;rounded=0;html=1;nl2Br=0;gliffyId=3309;edgeStyle=orthogonalEdgeStyle;" parent="2" source="25" target="25" edge="1">
          <mxGeometry width="100" height="100" relative="1" as="geometry">
            <Array as="points">
              <mxPoint x="510.1471862792969" y="1095" />
              <mxPoint x="510.1471862792969" y="1055" />
              <mxPoint x="435" y="1055" />
              <mxPoint x="435" y="1137.4263916015625" />
              <mxPoint x="475" y="1137.4263916015625" />
            </Array>
          </mxGeometry>
        </mxCell>
        <mxCell id="54" value="&lt;div style=&#39;width: 27.6875px;height:auto;word-break: break-word;&#39;&gt;&lt;div align=&quot;center&quot;&gt;&lt;span style=&quot;font-size:12px;font-family:Arial; line-height: 0;&quot;&gt;&lt;span style=&quot; line-height: normal;&quot;&gt;0,1&lt;/span&gt;&lt;/span&gt;&lt;/div&gt;&lt;/div&gt;" style="text;html=1;nl2Br=0;points=[];labelBackgroundColor=#FFFFFF;html=1;nl2Br=0;verticalAlign=middle;align=center;spacingLeft=0.0;spacingRight=0;gliffyId=3310;" parent="53" vertex="1">
          <mxGeometry x="-0.9242340036072915" relative="1" as="geometry">
            <mxPoint y="20" as="offset" />
          </mxGeometry>
        </mxCell>
        <mxCell id="55" value="&lt;div style=&#39;width: 29.0125px;height:auto;word-break: break-word;&#39;&gt;&lt;div align=&quot;center&quot;&gt;&lt;span style=&quot;font-size:12px;font-family:Arial; line-height: 0;&quot;&gt;&lt;span style=&quot; line-height: normal;&quot;&gt;0..*&lt;/span&gt;&lt;/span&gt;&lt;/div&gt;&lt;/div&gt;" style="text;html=1;nl2Br=0;points=[];labelBackgroundColor=#FFFFFF;html=1;nl2Br=0;verticalAlign=middle;align=center;spacingLeft=0.0;spacingRight=0;gliffyId=3311;" parent="53" vertex="1">
          <mxGeometry x="0.7966101694915255" relative="1" as="geometry">
            <mxPoint y="-20" as="offset" />
          </mxGeometry>
        </mxCell>
        <mxCell id="56" value="&lt;div style=&#39;width: 67.7px;height:auto;word-break: break-word;&#39;&gt;&lt;div align=&quot;center&quot;&gt;&lt;span style=&quot;font-size:12px;font-family:Arial; line-height: 0;&quot;&gt;&lt;span style=&quot; line-height: normal;&quot;&gt;references&lt;/span&gt;&lt;/span&gt;&lt;/div&gt;&lt;/div&gt;" style="text;html=1;nl2Br=0;points=[];labelBackgroundColor=#FFFFFF;html=1;nl2Br=0;verticalAlign=middle;align=center;spacingLeft=0.0;spacingRight=0;gliffyId=3312;" parent="53" vertex="1">
          <mxGeometry x="-0.3686166967274288" relative="1" as="geometry">
            <mxPoint as="offset" />
          </mxGeometry>
        </mxCell>
        <mxCell id="57" style="shape=filledEdge;strokeWidth=2;strokeColor=#000000;fillColor=none;startArrow=none;startFill=0;startSize=6;endArrow=diamond;endFill=0;endSize=12;rounded=0;html=1;nl2Br=0;gliffyId=3314;edgeStyle=orthogonalEdgeStyle;" parent="2" source="25" target="23" edge="1">
          <mxGeometry width="100" height="100" relative="1" as="geometry">
            <Array as="points">
              <mxPoint x="535" y="1095" />
              <mxPoint x="535" y="1065" />
              <mxPoint x="535" y="1035" />
              <mxPoint x="535" y="1005" />
            </Array>
          </mxGeometry>
        </mxCell>
        <mxCell id="58" value="&lt;div style=&#39;width: 17.675px;height:auto;word-break: break-word;&#39;&gt;&lt;div align=&quot;center&quot;&gt;&lt;span style=&quot;font-size:12px;font-family:Arial; line-height: 0;&quot;&gt;&lt;span style=&quot; line-height: normal;&quot;&gt;1&lt;/span&gt;&lt;/span&gt;&lt;/div&gt;&lt;/div&gt;" style="text;html=1;nl2Br=0;points=[];labelBackgroundColor=#FFFFFF;html=1;nl2Br=0;verticalAlign=middle;align=center;spacingLeft=0.0;spacingRight=0;gliffyId=3315;" parent="57" vertex="1">
          <mxGeometry x="-0.6888888888888889" relative="1" as="geometry">
            <mxPoint y="20" as="offset" />
          </mxGeometry>
        </mxCell>
        <mxCell id="59" value="&lt;div style=&#39;width: 29.0125px;height:auto;word-break: break-word;&#39;&gt;&lt;div align=&quot;center&quot;&gt;&lt;span style=&quot;font-size:12px;font-family:Arial; line-height: 0;&quot;&gt;&lt;span style=&quot; line-height: normal;&quot;&gt;0..*&lt;/span&gt;&lt;/span&gt;&lt;/div&gt;&lt;/div&gt;" style="text;html=1;nl2Br=0;points=[];labelBackgroundColor=#FFFFFF;html=1;nl2Br=0;verticalAlign=middle;align=center;spacingLeft=0.0;spacingRight=0;gliffyId=3316;" parent="57" vertex="1">
          <mxGeometry x="0.711111111111111" relative="1" as="geometry">
            <mxPoint y="20" as="offset" />
          </mxGeometry>
        </mxCell>
        <mxCell id="60" value="&lt;div style=&#39;width: 36.35px;height:auto;word-break: break-word;&#39;&gt;&lt;div align=&quot;center&quot;&gt;&lt;span style=&quot;font-size:12px;font-family:Arial; line-height: 0;&quot;&gt;&lt;span style=&quot; line-height: normal;&quot;&gt;uses&lt;/span&gt;&lt;/span&gt;&lt;/div&gt;&lt;/div&gt;" style="text;html=1;nl2Br=0;points=[];labelBackgroundColor=#FFFFFF;html=1;nl2Br=0;verticalAlign=middle;align=center;spacingLeft=0.0;spacingRight=0;gliffyId=3317;" parent="57" vertex="1">
          <mxGeometry x="-0.0444444444444444" relative="1" as="geometry">
            <mxPoint as="offset" />
          </mxGeometry>
        </mxCell>
        <mxCell id="61" style="shape=filledEdge;strokeWidth=2;strokeColor=#000000;fillColor=none;startArrow=none;startFill=0;startSize=6;endArrow=diamond;endFill=0;endSize=12;rounded=0;html=1;nl2Br=0;gliffyId=3318;edgeStyle=orthogonalEdgeStyle;" parent="2" source="26" target="24" edge="1">
          <mxGeometry width="100" height="100" relative="1" as="geometry">
            <Array as="points">
              <mxPoint x="735" y="1095" />
              <mxPoint x="735" y="1065" />
              <mxPoint x="735" y="1035" />
              <mxPoint x="735" y="1005" />
            </Array>
          </mxGeometry>
        </mxCell>
        <mxCell id="62" value="&lt;div style=&#39;width: 17.675px;height:auto;word-break: break-word;&#39;&gt;&lt;div align=&quot;center&quot;&gt;&lt;span style=&quot;font-size:12px;font-family:Arial; line-height: 0;&quot;&gt;&lt;span style=&quot; line-height: normal;&quot;&gt;1&lt;/span&gt;&lt;/span&gt;&lt;/div&gt;&lt;/div&gt;" style="text;html=1;nl2Br=0;points=[];labelBackgroundColor=#FFFFFF;html=1;nl2Br=0;verticalAlign=middle;align=center;spacingLeft=0.0;spacingRight=0;gliffyId=3319;" parent="61" vertex="1">
          <mxGeometry x="-0.6888888888888889" relative="1" as="geometry">
            <mxPoint y="20" as="offset" />
          </mxGeometry>
        </mxCell>
        <mxCell id="63" value="&lt;div style=&#39;width: 29.0125px;height:auto;word-break: break-word;&#39;&gt;&lt;div align=&quot;center&quot;&gt;&lt;span style=&quot;font-size:12px;font-family:Arial; line-height: 0;&quot;&gt;&lt;span style=&quot; line-height: normal;&quot;&gt;0..*&lt;/span&gt;&lt;/span&gt;&lt;/div&gt;&lt;/div&gt;" style="text;html=1;nl2Br=0;points=[];labelBackgroundColor=#FFFFFF;html=1;nl2Br=0;verticalAlign=middle;align=center;spacingLeft=0.0;spacingRight=0;gliffyId=3320;" parent="61" vertex="1">
          <mxGeometry x="0.711111111111111" relative="1" as="geometry">
            <mxPoint y="20" as="offset" />
          </mxGeometry>
        </mxCell>
        <mxCell id="64" value="&lt;div style=&#39;width: 36.35px;height:auto;word-break: break-word;&#39;&gt;&lt;div align=&quot;center&quot;&gt;&lt;span style=&quot;font-size:12px;font-family:Arial; line-height: 0;&quot;&gt;&lt;span style=&quot; line-height: normal;&quot;&gt;uses&lt;/span&gt;&lt;/span&gt;&lt;/div&gt;&lt;/div&gt;" style="text;html=1;nl2Br=0;points=[];labelBackgroundColor=#FFFFFF;html=1;nl2Br=0;verticalAlign=middle;align=center;spacingLeft=0.0;spacingRight=0;gliffyId=3321;" parent="61" vertex="1">
          <mxGeometry x="-0.0444444444444444" relative="1" as="geometry">
            <mxPoint as="offset" />
          </mxGeometry>
        </mxCell>
        <mxCell id="65" style="shape=filledEdge;strokeWidth=2;strokeColor=#000000;fillColor=none;startArrow=none;startFill=0;startSize=6;endArrow=diamond;endFill=0;endSize=12;rounded=0;html=1;nl2Br=0;gliffyId=3357;edgeStyle=orthogonalEdgeStyle;" parent="2" source="19" target="20" edge="1">
          <mxGeometry width="100" height="100" relative="1" as="geometry">
            <Array as="points">
              <mxPoint x="310" y="845" />
              <mxPoint x="310" y="878.393310546875" />
              <mxPoint x="310" y="911.7865600585938" />
              <mxPoint x="310" y="945.1798095703125" />
            </Array>
          </mxGeometry>
        </mxCell>
        <mxCell id="66" value="&lt;div style=&#39;width: 17.675px;height:auto;word-break: break-word;&#39;&gt;&lt;div align=&quot;center&quot;&gt;&lt;span style=&quot;font-size:12px;font-family:Arial; line-height: normal;&quot;&gt;1&lt;/span&gt;&lt;/div&gt;&lt;/div&gt;" style="text;html=1;nl2Br=0;points=[];labelBackgroundColor=#FFFFFF;html=1;nl2Br=0;verticalAlign=middle;align=center;spacingLeft=0.0;spacingRight=0;gliffyId=3362;" parent="65" vertex="1">
          <mxGeometry x="-0.7005385463602665" relative="1" as="geometry">
            <mxPoint x="-15" as="offset" />
          </mxGeometry>
        </mxCell>
        <mxCell id="67" value="&lt;div style=&#39;width: 29.0125px;height:auto;word-break: break-word;&#39;&gt;&lt;div align=&quot;center&quot;&gt;&lt;span style=&quot;font-size:12px;font-family:Arial; line-height: 0;&quot;&gt;&lt;span style=&quot; line-height: normal;&quot;&gt;0..*&lt;/span&gt;&lt;/span&gt;&lt;/div&gt;&lt;/div&gt;" style="text;html=1;nl2Br=0;points=[];labelBackgroundColor=#FFFFFF;html=1;nl2Br=0;verticalAlign=middle;align=center;spacingLeft=0.0;spacingRight=0;gliffyId=3359;" parent="65" vertex="1">
          <mxGeometry x="0.7966101694915255" relative="1" as="geometry">
            <mxPoint y="20" as="offset" />
          </mxGeometry>
        </mxCell>
        <mxCell id="68" value="&lt;div style=&#39;width: 36.35px;height:auto;word-break: break-word;&#39;&gt;&lt;div align=&quot;center&quot;&gt;&lt;span style=&quot;font-size:12px;font-family:Arial; line-height: 0;&quot;&gt;&lt;span style=&quot; line-height: normal;&quot;&gt;uses&lt;/span&gt;&lt;/span&gt;&lt;/div&gt;&lt;/div&gt;" style="text;html=1;nl2Br=0;points=[];labelBackgroundColor=#FFFFFF;html=1;nl2Br=0;verticalAlign=middle;align=center;spacingLeft=0.0;spacingRight=0;gliffyId=3360;" parent="65" vertex="1">
          <mxGeometry x="-0.030513332282920858" relative="1" as="geometry">
            <mxPoint as="offset" />
          </mxGeometry>
        </mxCell>
        <mxCell id="69" style="shape=filledEdge;strokeWidth=2;strokeColor=#000000;fillColor=none;startArrow=none;startFill=0;startSize=6;endArrow=diamond;endFill=0;endSize=12;rounded=0;html=1;nl2Br=0;gliffyId=3367;edgeStyle=orthogonalEdgeStyle;" parent="2" source="17" target="22" edge="1">
          <mxGeometry width="100" height="100" relative="1" as="geometry">
            <Array as="points">
              <mxPoint x="985" y="815" />
              <mxPoint x="941.6666259765625" y="815" />
              <mxPoint x="898.3333740234375" y="815" />
              <mxPoint x="855" y="815" />
            </Array>
          </mxGeometry>
        </mxCell>
        <mxCell id="70" value="&lt;div style=&#39;width: 29.0125px;height:auto;word-break: break-word;&#39;&gt;&lt;div align=&quot;center&quot;&gt;&lt;span style=&quot;font-size:12px;font-family:Arial; line-height: normal;&quot;&gt;0..*&lt;/span&gt;&lt;/div&gt;&lt;/div&gt;" style="text;html=1;nl2Br=0;points=[];labelBackgroundColor=#FFFFFF;html=1;nl2Br=0;verticalAlign=middle;align=center;spacingLeft=0.0;spacingRight=0;gliffyId=3368;" parent="69" vertex="1">
          <mxGeometry x="-0.7692307692307692" relative="1" as="geometry">
            <mxPoint y="-15" as="offset" />
          </mxGeometry>
        </mxCell>
        <mxCell id="71" value="&lt;div style=&#39;width: 29.0125px;height:auto;word-break: break-word;&#39;&gt;&lt;div align=&quot;center&quot;&gt;&lt;span style=&quot;font-size:12px;font-family:Arial; line-height: 0;&quot;&gt;&lt;span style=&quot; line-height: normal;&quot;&gt;0..*&lt;/span&gt;&lt;/span&gt;&lt;/div&gt;&lt;/div&gt;" style="text;html=1;nl2Br=0;points=[];labelBackgroundColor=#FFFFFF;html=1;nl2Br=0;verticalAlign=middle;align=center;spacingLeft=0.0;spacingRight=0;gliffyId=3369;" parent="69" vertex="1">
          <mxGeometry x="0.7966101694915255" relative="1" as="geometry">
            <mxPoint y="-20" as="offset" />
          </mxGeometry>
        </mxCell>
        <mxCell id="72" value="&lt;div style=&#39;width: 36.35px;height:auto;word-break: break-word;&#39;&gt;&lt;div align=&quot;center&quot;&gt;&lt;span style=&quot;font-size:12px;font-family:Arial; line-height: 0;&quot;&gt;&lt;span style=&quot; line-height: normal;&quot;&gt;uses&lt;/span&gt;&lt;/span&gt;&lt;/div&gt;&lt;/div&gt;" style="text;html=1;nl2Br=0;points=[];labelBackgroundColor=#FFFFFF;html=1;nl2Br=0;verticalAlign=middle;align=center;spacingLeft=0.0;spacingRight=0;gliffyId=3370;" parent="69" vertex="1">
          <mxGeometry x="-0.030513332282920858" relative="1" as="geometry">
            <mxPoint as="offset" />
          </mxGeometry>
        </mxCell>
        <mxCell id="73" style="shape=filledEdge;strokeWidth=2;strokeColor=#000000;fillColor=none;startArrow=none;startFill=0;startSize=6;endArrow=diamond;endFill=0;endSize=12;rounded=0;gliffyId=3131;edgeStyle=orthogonalEdgeStyle;" parent="2" source="3" target="31" edge="1">
          <mxGeometry width="100" height="100" relative="1" as="geometry">
            <Array as="points">
              <mxPoint x="475" y="178.6666717529297" />
              <mxPoint x="20" y="178.6666717529297" />
              <mxPoint x="20" y="518.6666870117188" />
              <mxPoint x="475" y="518.6666870117188" />
            </Array>
          </mxGeometry>
        </mxCell>
        <mxCell id="74" style="shape=filledEdge;strokeWidth=2;strokeColor=#000000;fillColor=none;startArrow=none;startFill=0;startSize=6;endArrow=diamond;endFill=0;endSize=12;rounded=0;html=1;nl2Br=0;gliffyId=3251;edgeStyle=orthogonalEdgeStyle;" parent="2" source="3" target="30" edge="1">
          <mxGeometry width="100" height="100" relative="1" as="geometry">
            <Array as="points">
              <mxPoint x="535" y="148.6666717529297" />
              <mxPoint x="535" y="90" />
              <mxPoint x="1520" y="90" />
              <mxPoint x="1520" y="408.66668701171875" />
            </Array>
          </mxGeometry>
        </mxCell>
        <mxCell id="75" value="&lt;div style=&#39;width: 36.35px;height:auto;word-break: break-word;&#39;&gt;&lt;div align=&quot;center&quot;&gt;&lt;span style=&quot;font-size:12px;font-family:Arial; line-height: 0;&quot;&gt;&lt;span style=&quot; line-height: normal;&quot;&gt;uses&lt;/span&gt;&lt;/span&gt;&lt;/div&gt;&lt;/div&gt;" style="text;html=1;nl2Br=0;points=[];labelBackgroundColor=#FFFFFF;html=1;nl2Br=0;verticalAlign=middle;align=center;spacingLeft=0.0;spacingRight=0;gliffyId=3252;" parent="74" vertex="1">
          <mxGeometry x="-0.1384694206019521" relative="1" as="geometry">
            <mxPoint as="offset" />
          </mxGeometry>
        </mxCell>
        <mxCell id="76" style="shape=filledEdge;strokeWidth=2;strokeColor=#000000;fillColor=none;startArrow=none;startFill=0;startSize=6;endArrow=open;endFill=0;endSize=6;rounded=0;html=1;nl2Br=0;gliffyId=3021;edgeStyle=orthogonalEdgeStyle;" parent="2" source="4" target="3" edge="1">
          <mxGeometry width="2" height="102" relative="1" as="geometry">
            <Array as="points">
              <mxPoint x="890" y="358.66668701171875" />
              <mxPoint x="742.5" y="358.66668701171875" />
              <mxPoint x="742.5" y="178.66668701171875" />
              <mxPoint x="595" y="178.66668701171875" />
            </Array>
          </mxGeometry>
        </mxCell>
        <mxCell id="77" value="&lt;div style=&#39;width: 17.675px;height:auto;word-break: break-word;&#39;&gt;&lt;div align=&quot;center&quot;&gt;&lt;span style=&quot;font-size:12px;font-family:Arial; line-height: 0;&quot;&gt;&lt;span style=&quot; line-height: normal;&quot;&gt;1&lt;/span&gt;&lt;/span&gt;&lt;/div&gt;&lt;/div&gt;" style="text;html=1;nl2Br=0;points=[];labelBackgroundColor=#FFFFFF;html=1;nl2Br=0;verticalAlign=middle;align=center;spacingLeft=0.0;spacingRight=0;gliffyId=3022;" parent="76" vertex="1">
          <mxGeometry x="0.9244786403602936" relative="1" as="geometry">
            <mxPoint y="-20" as="offset" />
          </mxGeometry>
        </mxCell>
        <mxCell id="78" value="&lt;div style=&#39;width: 29.0125px;height:auto;word-break: break-word;&#39;&gt;&lt;div align=&quot;center&quot;&gt;&lt;span style=&quot;font-size:12px;font-family:Arial; line-height: 0;&quot;&gt;&lt;span style=&quot; line-height: normal;&quot;&gt;0..*&lt;/span&gt;&lt;/span&gt;&lt;/div&gt;&lt;/div&gt;" style="text;html=1;nl2Br=0;points=[];labelBackgroundColor=#FFFFFF;html=1;nl2Br=0;verticalAlign=middle;align=center;spacingLeft=0.0;spacingRight=0;gliffyId=3023;" parent="76" vertex="1">
          <mxGeometry x="-0.9330309630643854" relative="1" as="geometry">
            <mxPoint y="-20" as="offset" />
          </mxGeometry>
        </mxCell>
        <mxCell id="79" value="&lt;div style=&#39;width: 92.375px;height:auto;word-break: break-word;&#39;&gt;&lt;div align=&quot;center&quot;&gt;&lt;span style=&quot;font-size:12px;font-family:Arial; line-height: 0;&quot;&gt;&lt;span style=&quot; line-height: normal;&quot;&gt;is structured by&lt;/span&gt;&lt;/span&gt;&lt;/div&gt;&lt;/div&gt;" style="text;html=1;nl2Br=0;points=[];labelBackgroundColor=#FFFFFF;html=1;nl2Br=0;verticalAlign=middle;align=center;spacingLeft=0.0;spacingRight=0;gliffyId=3024;" parent="76" vertex="1">
          <mxGeometry x="0.6601271787723413" relative="1" as="geometry">
            <mxPoint as="offset" />
          </mxGeometry>
        </mxCell>
        <mxCell id="80" style="shape=filledEdge;strokeWidth=2;strokeColor=#000000;fillColor=none;startArrow=none;startFill=0;startSize=6;endArrow=open;endFill=0;endSize=6;rounded=0;html=1;nl2Br=0;gliffyId=3195;edgeStyle=orthogonalEdgeStyle;" parent="2" source="8" target="15" edge="1">
          <mxGeometry width="2" height="102" relative="1" as="geometry">
            <Array as="points">
              <mxPoint x="1129.852783203125" y="648.1666870117188" />
              <mxPoint x="1129.852783203125" y="518.6666870117188" />
              <mxPoint x="1220" y="518.6666870117188" />
            </Array>
          </mxGeometry>
        </mxCell>
        <mxCell id="81" value="&lt;div style=&#39;width: 29.0125px;height:auto;word-break: break-word;&#39;&gt;&lt;div align=&quot;center&quot;&gt;&lt;span style=&quot;font-size:12px;font-family:Arial;color:rgb(0, 0, 0); line-height: 0;&quot;&gt;&lt;span style=&quot; line-height: normal;&quot;&gt;1..*&lt;/span&gt;&lt;/span&gt;&lt;/div&gt;&lt;/div&gt;" style="text;html=1;nl2Br=0;points=[];labelBackgroundColor=#FFFFFF;html=1;nl2Br=0;verticalAlign=middle;align=center;spacingLeft=0.0;spacingRight=0;gliffyId=3391;" parent="80" vertex="1">
          <mxGeometry x="0.8575243641931982" relative="1" as="geometry">
            <mxPoint y="20" as="offset" />
          </mxGeometry>
        </mxCell>
        <mxCell id="82" value="&lt;div style=&#39;width: 29.0125px;height:auto;word-break: break-word;&#39;&gt;&lt;div align=&quot;center&quot;&gt;&lt;span style=&quot;font-size:12px;font-family:Arial; line-height: 0;&quot;&gt;&lt;span style=&quot; line-height: normal;&quot;&gt;1..*&lt;/span&gt;&lt;/span&gt;&lt;/div&gt;&lt;/div&gt;" style="text;html=1;nl2Br=0;points=[];labelBackgroundColor=#FFFFFF;html=1;nl2Br=0;verticalAlign=middle;align=center;spacingLeft=0.0;spacingRight=0;gliffyId=3197;" parent="80" vertex="1">
          <mxGeometry x="-0.8634173261622649" relative="1" as="geometry">
            <mxPoint y="20" as="offset" />
          </mxGeometry>
        </mxCell>
        <mxCell id="83" value="&lt;div style=&#39;width: 97.05px;height:auto;word-break: break-word;&#39;&gt;&lt;div align=&quot;center&quot;&gt;&lt;span style=&quot;font-size:12px;font-family:Arial; line-height: 0;&quot;&gt;&lt;span style=&quot; line-height: normal;&quot;&gt;makes available&lt;/span&gt;&lt;/span&gt;&lt;/div&gt;&lt;/div&gt;" style="text;html=1;nl2Br=0;points=[];labelBackgroundColor=#FFFFFF;html=1;nl2Br=0;verticalAlign=middle;align=center;spacingLeft=0.0;spacingRight=0;gliffyId=3198;" parent="80" vertex="1">
          <mxGeometry x="-0.2590216524616863" relative="1" as="geometry">
            <mxPoint as="offset" />
          </mxGeometry>
        </mxCell>
        <mxCell id="84" style="shape=filledEdge;strokeWidth=2;strokeColor=#000000;fillColor=none;startArrow=none;startFill=0;startSize=6;endArrow=open;endFill=0;endSize=6;rounded=0;html=1;nl2Br=0;gliffyId=3375;edgeStyle=orthogonalEdgeStyle;" parent="2" source="15" target="4" edge="1">
          <mxGeometry width="2" height="102" relative="1" as="geometry">
            <Array as="points">
              <mxPoint x="1220" y="506.240234375" />
              <mxPoint x="1130" y="506.240234375" />
              <mxPoint x="1130" y="371.0930480957031" />
              <mxPoint x="1010" y="371.0930480957031" />
            </Array>
          </mxGeometry>
        </mxCell>
        <mxCell id="85" value="&lt;div style=&#39;width: 29.0125px;height:auto;word-break: break-word;&#39;&gt;&lt;div align=&quot;center&quot;&gt;&lt;span style=&quot;font-size:12px;font-family:Arial; line-height: 0;&quot;&gt;&lt;span style=&quot; line-height: normal;&quot;&gt;0..*&lt;/span&gt;&lt;/span&gt;&lt;/div&gt;&lt;/div&gt;" style="text;html=1;nl2Br=0;points=[];labelBackgroundColor=#FFFFFF;html=1;nl2Br=0;verticalAlign=middle;align=center;spacingLeft=0.0;spacingRight=0;gliffyId=3387;" parent="84" vertex="1">
          <mxGeometry x="-0.9014913018163133" relative="1" as="geometry">
            <mxPoint y="-20" as="offset" />
          </mxGeometry>
        </mxCell>
        <mxCell id="86" value="&lt;div style=&#39;width: 29.0125px;height:auto;word-break: break-word;&#39;&gt;&lt;div align=&quot;center&quot;&gt;&lt;span style=&quot;font-size:12px;font-family:Arial; line-height: 0;&quot;&gt;&lt;span style=&quot; line-height: normal;&quot;&gt;1..*&lt;/span&gt;&lt;/span&gt;&lt;/div&gt;&lt;/div&gt;" style="text;html=1;nl2Br=0;points=[];labelBackgroundColor=#FFFFFF;html=1;nl2Br=0;verticalAlign=middle;align=center;spacingLeft=0.0;spacingRight=0;gliffyId=3376;" parent="84" vertex="1">
          <mxGeometry x="0.8311028603555868" relative="1" as="geometry">
            <mxPoint y="20" as="offset" />
          </mxGeometry>
        </mxCell>
        <mxCell id="87" value="&lt;div style=&#39;width: 30.35px;height:auto;word-break: break-word;&#39;&gt;&lt;div align=&quot;center&quot;&gt;&lt;span style=&quot;font-size:12px;font-family:Arial; line-height: 0;&quot;&gt;&lt;span style=&quot; line-height: normal;&quot;&gt;has&lt;/span&gt;&lt;/span&gt;&lt;/div&gt;&lt;/div&gt;" style="text;html=1;nl2Br=0;points=[];labelBackgroundColor=#FFFFFF;html=1;nl2Br=0;verticalAlign=middle;align=center;spacingLeft=0.0;spacingRight=0;gliffyId=3378;" parent="84" vertex="1">
          <mxGeometry x="-0.05547542329759292" relative="1" as="geometry">
            <mxPoint as="offset" />
          </mxGeometry>
        </mxCell>
        <mxCell id="88" style="shape=filledEdge;strokeWidth=2;strokeColor=#000000;fillColor=none;startArrow=none;startFill=0;startSize=6;endArrow=open;endFill=0;endSize=6;rounded=0;html=1;nl2Br=0;gliffyId=3199;edgeStyle=orthogonalEdgeStyle;" parent="2" source="30" target="15" edge="1">
          <mxGeometry width="2" height="102" relative="1" as="geometry">
            <Array as="points">
              <mxPoint x="1460" y="451.0931091308594" />
              <mxPoint x="1280" y="451.0931091308594" />
              <mxPoint x="1280" y="488.66668701171875" />
            </Array>
          </mxGeometry>
        </mxCell>
        <mxCell id="89" value="&lt;div style=&#39;width: 29.0125px;height:auto;word-break: break-word;&#39;&gt;&lt;div align=&quot;center&quot;&gt;&lt;span style=&quot;font-size:12px;font-family:Arial; line-height: 0;&quot;&gt;&lt;span style=&quot; line-height: normal;&quot;&gt;0..*&lt;/span&gt;&lt;/span&gt;&lt;/div&gt;&lt;/div&gt;" style="text;html=1;nl2Br=0;points=[];labelBackgroundColor=#FFFFFF;html=1;nl2Br=0;verticalAlign=middle;align=center;spacingLeft=0.0;spacingRight=0;gliffyId=3200;" parent="88" vertex="1">
          <mxGeometry x="0.8844198604436029" relative="1" as="geometry">
            <mxPoint y="20" as="offset" />
          </mxGeometry>
        </mxCell>
        <mxCell id="90" value="&lt;div style=&#39;width: 29.0125px;height:auto;word-break: break-word;&#39;&gt;&lt;div align=&quot;center&quot;&gt;&lt;span style=&quot;font-size:12px;font-family:Arial; line-height: 0;&quot;&gt;&lt;span style=&quot; line-height: normal;&quot;&gt;1..*&lt;/span&gt;&lt;/span&gt;&lt;/div&gt;&lt;/div&gt;" style="text;html=1;nl2Br=0;points=[];labelBackgroundColor=#FFFFFF;html=1;nl2Br=0;verticalAlign=middle;align=center;spacingLeft=0.0;spacingRight=0;gliffyId=3201;" parent="88" vertex="1">
          <mxGeometry x="-0.8161541599567217" relative="1" as="geometry">
            <mxPoint y="20" as="offset" />
          </mxGeometry>
        </mxCell>
        <mxCell id="91" value="&lt;div style=&#39;width: 57.6875px;height:auto;word-break: break-word;&#39;&gt;&lt;div align=&quot;center&quot;&gt;&lt;span style=&quot;font-size:12px;font-family:Arial; line-height: 0;&quot;&gt;&lt;span style=&quot; line-height: normal;&quot;&gt;specifies&lt;/span&gt;&lt;/span&gt;&lt;/div&gt;&lt;/div&gt;" style="text;html=1;nl2Br=0;points=[];labelBackgroundColor=#FFFFFF;html=1;nl2Br=0;verticalAlign=middle;align=center;spacingLeft=0.0;spacingRight=0;gliffyId=3202;" parent="88" vertex="1">
          <mxGeometry x="-0.11753996779226406" relative="1" as="geometry">
            <mxPoint as="offset" />
          </mxGeometry>
        </mxCell>
        <mxCell id="92" style="shape=filledEdge;strokeWidth=2;strokeColor=#000000;fillColor=none;startArrow=none;startFill=0;startSize=6;endArrow=open;endFill=0;endSize=6;rounded=0;html=1;nl2Br=0;gliffyId=3204;edgeStyle=orthogonalEdgeStyle;" parent="2" source="30" target="14" edge="1">
          <mxGeometry width="2" height="102" relative="1" as="geometry">
            <Array as="points">
              <mxPoint x="1460" y="426.2402648925781" />
              <mxPoint x="1280" y="426.2402648925781" />
              <mxPoint x="1280" y="388.66668701171875" />
            </Array>
          </mxGeometry>
        </mxCell>
        <mxCell id="93" value="&lt;div style=&#39;width: 29.0125px;height:auto;word-break: break-word;&#39;&gt;&lt;div align=&quot;center&quot;&gt;&lt;span style=&quot;font-size:12px;font-family:Arial; line-height: 0;&quot;&gt;&lt;span style=&quot; line-height: normal;&quot;&gt;1..*&lt;/span&gt;&lt;/span&gt;&lt;/div&gt;&lt;/div&gt;" style="text;html=1;nl2Br=0;points=[];labelBackgroundColor=#FFFFFF;html=1;nl2Br=0;verticalAlign=middle;align=center;spacingLeft=0.0;spacingRight=0;gliffyId=3205;" parent="92" vertex="1">
          <mxGeometry x="0.8844198604436029" relative="1" as="geometry">
            <mxPoint y="20" as="offset" />
          </mxGeometry>
        </mxCell>
        <mxCell id="94" value="&lt;div style=&#39;width: 29.0125px;height:auto;word-break: break-word;&#39;&gt;&lt;div align=&quot;center&quot;&gt;&lt;span style=&quot;font-size:12px;font-family:Arial; line-height: 0;&quot;&gt;&lt;span style=&quot; line-height: normal;&quot;&gt;0..*&lt;/span&gt;&lt;/span&gt;&lt;/div&gt;&lt;/div&gt;" style="text;html=1;nl2Br=0;points=[];labelBackgroundColor=#FFFFFF;html=1;nl2Br=0;verticalAlign=middle;align=center;spacingLeft=0.0;spacingRight=0;gliffyId=3206;" parent="92" vertex="1">
          <mxGeometry x="-0.8529233279653774" relative="1" as="geometry">
            <mxPoint y="-20" as="offset" />
          </mxGeometry>
        </mxCell>
        <mxCell id="95" value="&lt;div style=&#39;width: 36.35px;height:auto;word-break: break-word;&#39;&gt;&lt;div align=&quot;center&quot;&gt;&lt;span style=&quot;font-size:12px;font-family:Arial; line-height: 0;&quot;&gt;&lt;span style=&quot; line-height: normal;&quot;&gt;uses&lt;/span&gt;&lt;/span&gt;&lt;/div&gt;&lt;/div&gt;" style="text;html=1;nl2Br=0;points=[];labelBackgroundColor=#FFFFFF;html=1;nl2Br=0;verticalAlign=middle;align=center;spacingLeft=0.0;spacingRight=0;gliffyId=3207;" parent="92" vertex="1">
          <mxGeometry x="-0.11753996779226406" relative="1" as="geometry">
            <mxPoint as="offset" />
          </mxGeometry>
        </mxCell>
        <mxCell id="96" style="shape=filledEdge;strokeWidth=2;strokeColor=#000000;fillColor=none;startArrow=none;startFill=0;startSize=6;endArrow=open;endFill=0;endSize=6;rounded=0;html=1;nl2Br=0;gliffyId=3208;edgeStyle=orthogonalEdgeStyle;" parent="2" source="14" target="4" edge="1">
          <mxGeometry width="2" height="102" relative="1" as="geometry">
            <Array as="points">
              <mxPoint x="1220" y="358.66668701171875" />
              <mxPoint x="1150" y="358.66668701171875" />
              <mxPoint x="1080" y="358.66668701171875" />
              <mxPoint x="1010" y="358.66668701171875" />
            </Array>
          </mxGeometry>
        </mxCell>
        <mxCell id="97" value="&lt;div style=&#39;width: 29.0125px;height:auto;word-break: break-word;&#39;&gt;&lt;div align=&quot;center&quot;&gt;&lt;span style=&quot;font-size:12px;font-family:Arial;color:rgb(0, 0, 0); line-height: 0;&quot;&gt;&lt;span style=&quot; line-height: normal;&quot;&gt;0..*&lt;/span&gt;&lt;/span&gt;&lt;/div&gt;&lt;/div&gt;" style="text;html=1;nl2Br=0;points=[];labelBackgroundColor=#FFFFFF;html=1;nl2Br=0;verticalAlign=middle;align=center;spacingLeft=0.0;spacingRight=0;gliffyId=3209;" parent="96" vertex="1">
          <mxGeometry x="0.7714285714285714" relative="1" as="geometry">
            <mxPoint y="-20" as="offset" />
          </mxGeometry>
        </mxCell>
        <mxCell id="98" value="&lt;div style=&#39;width: 29.0125px;height:auto;word-break: break-word;&#39;&gt;&lt;div align=&quot;center&quot;&gt;&lt;span style=&quot;font-size:12px;font-family:Arial; line-height: 0;&quot;&gt;&lt;span style=&quot; line-height: normal;&quot;&gt;0..*&lt;/span&gt;&lt;/span&gt;&lt;/div&gt;&lt;/div&gt;" style="text;html=1;nl2Br=0;points=[];labelBackgroundColor=#FFFFFF;html=1;nl2Br=0;verticalAlign=middle;align=center;spacingLeft=0.0;spacingRight=0;gliffyId=3210;" parent="96" vertex="1">
          <mxGeometry x="-0.7904761904761904" relative="1" as="geometry">
            <mxPoint y="-20" as="offset" />
          </mxGeometry>
        </mxCell>
        <mxCell id="99" value="&lt;div style=&#39;width: 57.0375px;height:auto;word-break: break-word;&#39;&gt;&lt;div align=&quot;center&quot;&gt;&lt;span style=&quot;font-size:12px;font-family:Arial; line-height: 0;&quot;&gt;&lt;span style=&quot; line-height: normal;&quot;&gt;presents&lt;/span&gt;&lt;/span&gt;&lt;/div&gt;&lt;/div&gt;" style="text;html=1;nl2Br=0;points=[];labelBackgroundColor=#FFFFFF;html=1;nl2Br=0;verticalAlign=middle;align=center;spacingLeft=0.0;spacingRight=0;gliffyId=3211;" parent="96" vertex="1">
          <mxGeometry x="-0.47619047619047616" relative="1" as="geometry">
            <mxPoint as="offset" />
          </mxGeometry>
        </mxCell>
        <mxCell id="100" style="shape=filledEdge;strokeWidth=2;strokeColor=#000000;fillColor=none;startArrow=none;startFill=0;startSize=6;endArrow=open;endFill=0;endSize=6;rounded=0;html=1;nl2Br=0;gliffyId=3257;edgeStyle=orthogonalEdgeStyle;" parent="2" source="16" target="16" edge="1">
          <mxGeometry width="2" height="102" relative="1" as="geometry">
            <Array as="points">
              <mxPoint x="1340" y="690.5930786132812" />
              <mxPoint x="1380" y="690.5930786132812" />
              <mxPoint x="1380" y="608.1666870117188" />
              <mxPoint x="1304.852783203125" y="608.1666870117188" />
              <mxPoint x="1304.852783203125" y="648.1666870117188" />
            </Array>
          </mxGeometry>
        </mxCell>
        <mxCell id="101" value="&lt;div style=&#39;width: 29.0125px;height:auto;word-break: break-word;&#39;&gt;&lt;div align=&quot;center&quot;&gt;&lt;span style=&quot;font-size:12px;font-family:Arial;color:rgb(0, 0, 0); line-height: 0;&quot;&gt;&lt;span style=&quot; line-height: normal;&quot;&gt;0..*&lt;/span&gt;&lt;/span&gt;&lt;/div&gt;&lt;/div&gt;" style="text;html=1;nl2Br=0;points=[];labelBackgroundColor=#FFFFFF;html=1;nl2Br=0;verticalAlign=middle;align=center;spacingLeft=0.0;spacingRight=0;gliffyId=3258;" parent="100" vertex="1">
          <mxGeometry x="0.910986797904981" relative="1" as="geometry">
            <mxPoint y="20" as="offset" />
          </mxGeometry>
        </mxCell>
        <mxCell id="102" value="&lt;div style=&#39;width: 29.0125px;height:auto;word-break: break-word;&#39;&gt;&lt;div align=&quot;center&quot;&gt;&lt;span style=&quot;font-size:12px;font-family:Arial; line-height: 0;&quot;&gt;&lt;span style=&quot; line-height: normal;&quot;&gt;0..*&lt;/span&gt;&lt;/span&gt;&lt;/div&gt;&lt;/div&gt;" style="text;html=1;nl2Br=0;points=[];labelBackgroundColor=#FFFFFF;html=1;nl2Br=0;verticalAlign=middle;align=center;spacingLeft=0.0;spacingRight=0;gliffyId=3259;" parent="100" vertex="1">
          <mxGeometry x="-0.8400495631709487" relative="1" as="geometry">
            <mxPoint y="-20" as="offset" />
          </mxGeometry>
        </mxCell>
        <mxCell id="103" value="&lt;div style=&#39;width: 60.3625px;height:auto;word-break: break-word;&#39;&gt;&lt;div align=&quot;center&quot;&gt;&lt;span style=&quot;font-size:12px;font-family:Arial; line-height: 0;&quot;&gt;&lt;span style=&quot; line-height: normal;&quot;&gt;relates to&lt;/span&gt;&lt;/span&gt;&lt;/div&gt;&lt;/div&gt;" style="text;html=1;nl2Br=0;points=[];labelBackgroundColor=#FFFFFF;html=1;nl2Br=0;verticalAlign=middle;align=center;spacingLeft=0.0;spacingRight=0;gliffyId=3260;" parent="100" vertex="1">
          <mxGeometry x="0.3216957148505817" relative="1" as="geometry">
            <mxPoint as="offset" />
          </mxGeometry>
        </mxCell>
        <mxCell id="104" style="shape=filledEdge;strokeWidth=2;strokeColor=#000000;fillColor=none;startArrow=none;startFill=0;startSize=6;endArrow=open;endFill=0;endSize=6;rounded=0;html=1;nl2Br=0;gliffyId=3296;exitX=0.2928932309150696;exitY=1.0;exitPerimeter=0;entryX=0.5;entryY=0.0;entryPerimeter=0;" parent="2" source="25" target="28" edge="1">
          <mxGeometry width="2" height="102" relative="1" as="geometry">
            <Array as="points">
              <mxPoint x="510.1471862792969" y="1155" />
              <mxPoint x="430" y="1235" />
            </Array>
          </mxGeometry>
        </mxCell>
        <mxCell id="105" value="&lt;div style=&#39;width: 29.0125px;height:auto;word-break: break-word;&#39;&gt;&lt;div align=&quot;center&quot;&gt;&lt;span style=&quot;font-size:12px;font-family:Arial;color:rgb(0, 0, 0); line-height: 0;&quot;&gt;&lt;span style=&quot; line-height: normal;&quot;&gt;0..*&lt;/span&gt;&lt;/span&gt;&lt;/div&gt;&lt;/div&gt;" style="text;html=1;nl2Br=0;points=[];labelBackgroundColor=#FFFFFF;html=1;nl2Br=0;verticalAlign=middle;align=center;spacingLeft=0.0;spacingRight=0;gliffyId=3297;" parent="104" vertex="1">
          <mxGeometry x="0.3599289610585923" relative="1" as="geometry">
            <mxPoint y="20" as="offset" />
          </mxGeometry>
        </mxCell>
        <mxCell id="106" value="&lt;div style=&#39;width: 29.0125px;height:auto;word-break: break-word;&#39;&gt;&lt;div align=&quot;center&quot;&gt;&lt;span style=&quot;font-size:12px;font-family:Arial; line-height: 0;&quot;&gt;&lt;span style=&quot; line-height: normal;&quot;&gt;0..*&lt;/span&gt;&lt;/span&gt;&lt;/div&gt;&lt;/div&gt;" style="text;html=1;nl2Br=0;points=[];labelBackgroundColor=#FFFFFF;html=1;nl2Br=0;verticalAlign=middle;align=center;spacingLeft=0.0;spacingRight=0;gliffyId=3298;" parent="104" vertex="1">
          <mxGeometry x="-0.7818181818181819" relative="1" as="geometry">
            <mxPoint y="20" as="offset" />
          </mxGeometry>
        </mxCell>
        <mxCell id="107" value="&lt;div style=&#39;width: 72.3875px;height:auto;word-break: break-word;&#39;&gt;&lt;div align=&quot;center&quot;&gt;&lt;span style=&quot;font-size:12px;font-family:Arial; line-height: 0;&quot;&gt;&lt;span style=&quot; line-height: normal;&quot;&gt;is based on&lt;/span&gt;&lt;/span&gt;&lt;/div&gt;&lt;/div&gt;" style="text;html=1;nl2Br=0;points=[];labelBackgroundColor=#FFFFFF;html=1;nl2Br=0;verticalAlign=middle;align=center;spacingLeft=0.0;spacingRight=0;gliffyId=3299;" parent="104" vertex="1">
          <mxGeometry x="0.1656533951930792" relative="1" as="geometry">
            <mxPoint as="offset" />
          </mxGeometry>
        </mxCell>
        <mxCell id="108" style="shape=filledEdge;strokeWidth=2;strokeColor=#000000;fillColor=none;startArrow=none;startFill=0;startSize=6;endArrow=open;endFill=0;endSize=6;rounded=0;html=1;nl2Br=0;gliffyId=3322;edgeStyle=orthogonalEdgeStyle;" parent="2" source="22" target="21" edge="1">
          <mxGeometry width="2" height="102" relative="1" as="geometry">
            <Array as="points">
              <mxPoint x="735" y="802.5736083984375" />
              <mxPoint x="688.3333740234375" y="802.5736083984375" />
              <mxPoint x="641.6666259765625" y="802.5736083984375" />
              <mxPoint x="595" y="802.5736083984375" />
            </Array>
          </mxGeometry>
        </mxCell>
        <mxCell id="109" value="&lt;div style=&#39;width: 29.0125px;height:auto;word-break: break-word;&#39;&gt;&lt;div align=&quot;center&quot;&gt;&lt;span style=&quot;font-size:12px;font-family:Arial;color:rgb(0, 0, 0); line-height: 0;&quot;&gt;&lt;span style=&quot; line-height: normal;&quot;&gt;0..*&lt;/span&gt;&lt;/span&gt;&lt;/div&gt;&lt;/div&gt;" style="text;html=1;nl2Br=0;points=[];labelBackgroundColor=#FFFFFF;html=1;nl2Br=0;verticalAlign=middle;align=center;spacingLeft=0.0;spacingRight=0;gliffyId=3323;" parent="108" vertex="1">
          <mxGeometry x="0.6857142857142857" relative="1" as="geometry">
            <mxPoint y="-20" as="offset" />
          </mxGeometry>
        </mxCell>
        <mxCell id="110" value="&lt;div style=&#39;width: 29.0125px;height:auto;word-break: break-word;&#39;&gt;&lt;div align=&quot;center&quot;&gt;&lt;span style=&quot;font-size:12px;font-family:Arial; line-height: 0;&quot;&gt;&lt;span style=&quot; line-height: normal;&quot;&gt;0..*&lt;/span&gt;&lt;/span&gt;&lt;/div&gt;&lt;/div&gt;" style="text;html=1;nl2Br=0;points=[];labelBackgroundColor=#FFFFFF;html=1;nl2Br=0;verticalAlign=middle;align=center;spacingLeft=0.0;spacingRight=0;gliffyId=3324;" parent="108" vertex="1">
          <mxGeometry x="-0.7714285714285715" relative="1" as="geometry">
            <mxPoint y="-20" as="offset" />
          </mxGeometry>
        </mxCell>
        <mxCell id="111" value="&lt;div style=&#39;width: 51.6875px;height:auto;word-break: break-word;&#39;&gt;&lt;div align=&quot;center&quot;&gt;&lt;span style=&quot;font-size:12px;font-family:Arial; line-height: 0;&quot;&gt;&lt;span style=&quot; line-height: normal;&quot;&gt;invokes&lt;/span&gt;&lt;/span&gt;&lt;/div&gt;&lt;/div&gt;" style="text;html=1;nl2Br=0;points=[];labelBackgroundColor=#FFFFFF;html=1;nl2Br=0;verticalAlign=middle;align=center;spacingLeft=0.0;spacingRight=0;gliffyId=3325;" parent="108" vertex="1">
          <mxGeometry x="-0.02857142857142858" relative="1" as="geometry">
            <mxPoint as="offset" />
          </mxGeometry>
        </mxCell>
        <mxCell id="112" style="shape=filledEdge;strokeWidth=2;strokeColor=#000000;fillColor=none;startArrow=none;startFill=0;startSize=6;endArrow=open;endFill=0;endSize=6;rounded=0;html=1;nl2Br=0;gliffyId=3331;edgeStyle=orthogonalEdgeStyle;" parent="2" source="23" target="27" edge="1">
          <mxGeometry width="2" height="102" relative="1" as="geometry">
            <Array as="points">
              <mxPoint x="475" y="975" />
              <mxPoint x="403" y="975" />
              <mxPoint x="403" y="1112.5736083984375" />
              <mxPoint x="370" y="1112.5736083984375" />
            </Array>
          </mxGeometry>
        </mxCell>
        <mxCell id="113" value="&lt;div style=&#39;width: 29.0125px;height:auto;word-break: break-word;&#39;&gt;&lt;div align=&quot;center&quot;&gt;&lt;span style=&quot;font-size:12px;font-family:Arial; line-height: 0;&quot;&gt;&lt;span style=&quot; line-height: normal;&quot;&gt;1..*&lt;/span&gt;&lt;/span&gt;&lt;/div&gt;&lt;/div&gt;" style="text;html=1;nl2Br=0;points=[];labelBackgroundColor=#FFFFFF;html=1;nl2Br=0;verticalAlign=middle;align=center;spacingLeft=0.0;spacingRight=0;gliffyId=3332;" parent="112" vertex="1">
          <mxGeometry x="0.7973926773162121" relative="1" as="geometry">
            <mxPoint y="20" as="offset" />
          </mxGeometry>
        </mxCell>
        <mxCell id="114" value="&lt;div style=&#39;width: 29.0125px;height:auto;word-break: break-word;&#39;&gt;&lt;div align=&quot;center&quot;&gt;&lt;span style=&quot;font-size:12px;font-family:Arial; line-height: 0;&quot;&gt;&lt;span style=&quot; line-height: normal;&quot;&gt;0..*&lt;/span&gt;&lt;/span&gt;&lt;/div&gt;&lt;/div&gt;" style="text;html=1;nl2Br=0;points=[];labelBackgroundColor=#FFFFFF;html=1;nl2Br=0;verticalAlign=middle;align=center;spacingLeft=0.0;spacingRight=0;gliffyId=3333;" parent="112" vertex="1">
          <mxGeometry x="-0.8876033952226609" relative="1" as="geometry">
            <mxPoint y="20" as="offset" />
          </mxGeometry>
        </mxCell>
        <mxCell id="115" value="&lt;div style=&#39;width: 63.05px;height:auto;word-break: break-word;&#39;&gt;&lt;div align=&quot;center&quot;&gt;&lt;span style=&quot;font-size:12px;font-family:Arial; line-height: 0;&quot;&gt;&lt;span style=&quot; line-height: normal;&quot;&gt;populates&lt;/span&gt;&lt;/span&gt;&lt;/div&gt;&lt;/div&gt;" style="text;html=1;nl2Br=0;points=[];labelBackgroundColor=#FFFFFF;html=1;nl2Br=0;verticalAlign=middle;align=center;spacingLeft=0.0;spacingRight=0;gliffyId=3334;" parent="112" vertex="1">
          <mxGeometry x="0.10481935211180016" relative="1" as="geometry">
            <mxPoint as="offset" />
          </mxGeometry>
        </mxCell>
        <mxCell id="116" style="shape=filledEdge;strokeWidth=2;strokeColor=#000000;fillColor=none;startArrow=none;startFill=0;startSize=6;endArrow=open;endFill=0;endSize=6;rounded=0;html=1;nl2Br=0;gliffyId=3139;edgeStyle=orthogonalEdgeStyle;" parent="2" source="5" target="4" edge="1">
          <mxGeometry width="2" height="102" relative="1" as="geometry">
            <Array as="points">
              <mxPoint x="925.147216796875" y="488.66668701171875" />
              <mxPoint x="925.147216796875" y="455.3333435058594" />
              <mxPoint x="925.147216796875" y="422.0000305175781" />
              <mxPoint x="925.147216796875" y="388.66668701171875" />
            </Array>
          </mxGeometry>
        </mxCell>
        <mxCell id="117" value="&lt;div style=&#39;width: 29.0125px;height:auto;word-break: break-word;&#39;&gt;&lt;div align=&quot;center&quot;&gt;&lt;span style=&quot;font-size:12px;font-family:Arial;color:rgb(0, 0, 0); line-height: 0;&quot;&gt;&lt;span style=&quot; line-height: normal;&quot;&gt;0..*&lt;/span&gt;&lt;/span&gt;&lt;/div&gt;&lt;/div&gt;" style="text;html=1;nl2Br=0;points=[];labelBackgroundColor=#FFFFFF;html=1;nl2Br=0;verticalAlign=middle;align=center;spacingLeft=0.0;spacingRight=0;gliffyId=3140;" parent="116" vertex="1">
          <mxGeometry x="0.76" relative="1" as="geometry">
            <mxPoint y="-20" as="offset" />
          </mxGeometry>
        </mxCell>
        <mxCell id="118" value="&lt;div style=&#39;width: 29.0125px;height:auto;word-break: break-word;&#39;&gt;&lt;div align=&quot;center&quot;&gt;&lt;span style=&quot;font-size:12px;font-family:Arial; line-height: 0;&quot;&gt;&lt;span style=&quot; line-height: normal;&quot;&gt;0..*&lt;/span&gt;&lt;/span&gt;&lt;/div&gt;&lt;/div&gt;" style="text;html=1;nl2Br=0;points=[];labelBackgroundColor=#FFFFFF;html=1;nl2Br=0;verticalAlign=middle;align=center;spacingLeft=0.0;spacingRight=0;gliffyId=3141;" parent="116" vertex="1">
          <mxGeometry x="-0.74" relative="1" as="geometry">
            <mxPoint y="-20" as="offset" />
          </mxGeometry>
        </mxCell>
        <mxCell id="119" value="&lt;div style=&#39;width: 65.7px;height:auto;word-break: break-word;&#39;&gt;&lt;div align=&quot;center&quot;&gt;&lt;span style=&quot;font-size:12px;font-family:Arial; line-height: 0;&quot;&gt;&lt;span style=&quot; line-height: normal;&quot;&gt;consumes&lt;/span&gt;&lt;/span&gt;&lt;/div&gt;&lt;/div&gt;" style="text;html=1;nl2Br=0;points=[];labelBackgroundColor=#FFFFFF;html=1;nl2Br=0;verticalAlign=middle;align=center;spacingLeft=0.0;spacingRight=0;gliffyId=3142;" parent="116" vertex="1">
          <mxGeometry x="-0.12727272727272732" relative="1" as="geometry">
            <mxPoint as="offset" />
          </mxGeometry>
        </mxCell>
        <mxCell id="120" style="shape=filledEdge;strokeWidth=2;strokeColor=#000000;fillColor=none;startArrow=none;startFill=0;startSize=6;endArrow=open;endFill=0;endSize=6;rounded=0;html=1;nl2Br=0;gliffyId=3231;exitX=1.0;exitY=0.5;exitPerimeter=0;entryX=1.1102230246251565E-16;entryY=0.2928932309150696;entryPerimeter=0;" parent="2" source="11" target="10" edge="1">
          <mxGeometry width="2" height="102" relative="1" as="geometry">
            <Array as="points">
              <mxPoint x="355" y="288.6666564941406" />
              <mxPoint x="475" y="336.240234375" />
            </Array>
          </mxGeometry>
        </mxCell>
        <mxCell id="121" value="&lt;div style=&#39;width: 29.0125px;height:auto;word-break: break-word;&#39;&gt;&lt;div align=&quot;center&quot;&gt;&lt;span style=&quot;font-size:12px;font-family:Arial;color:rgb(0, 0, 0); line-height: 0;&quot;&gt;&lt;span style=&quot; line-height: normal;&quot;&gt;0..*&lt;/span&gt;&lt;/span&gt;&lt;/div&gt;&lt;/div&gt;" style="text;html=1;nl2Br=0;points=[];labelBackgroundColor=#FFFFFF;html=1;nl2Br=0;verticalAlign=middle;align=center;spacingLeft=0.0;spacingRight=0;gliffyId=3232;" parent="120" vertex="1">
          <mxGeometry x="0.7197810593253322" relative="1" as="geometry">
            <mxPoint y="-20" as="offset" />
          </mxGeometry>
        </mxCell>
        <mxCell id="122" value="&lt;div style=&#39;width: 29.0125px;height:auto;word-break: break-word;&#39;&gt;&lt;div align=&quot;center&quot;&gt;&lt;span style=&quot;font-size:12px;font-family:Arial; line-height: 0;&quot;&gt;&lt;span style=&quot; line-height: normal;&quot;&gt;0..*&lt;/span&gt;&lt;/span&gt;&lt;/div&gt;&lt;/div&gt;" style="text;html=1;nl2Br=0;points=[];labelBackgroundColor=#FFFFFF;html=1;nl2Br=0;verticalAlign=middle;align=center;spacingLeft=0.0;spacingRight=0;gliffyId=3233;" parent="120" vertex="1">
          <mxGeometry x="-0.74" relative="1" as="geometry">
            <mxPoint y="-20" as="offset" />
          </mxGeometry>
        </mxCell>
        <mxCell id="123" value="&lt;div style=&#39;width: 81.7px;height:auto;word-break: break-word;&#39;&gt;&lt;div align=&quot;center&quot;&gt;&lt;span style=&quot;font-size:12px;font-family:Arial; line-height: 0;&quot;&gt;&lt;span style=&quot; line-height: normal;&quot;&gt;subscribes to&lt;/span&gt;&lt;/span&gt;&lt;/div&gt;&lt;/div&gt;" style="text;html=1;nl2Br=0;points=[];labelBackgroundColor=#FFFFFF;html=1;nl2Br=0;verticalAlign=middle;align=center;spacingLeft=0.0;spacingRight=0;gliffyId=3234;" parent="120" vertex="1">
          <mxGeometry x="-0.12727272727272732" relative="1" as="geometry">
            <mxPoint as="offset" />
          </mxGeometry>
        </mxCell>
        <mxCell id="124" style="shape=filledEdge;strokeWidth=2;strokeColor=#000000;fillColor=none;startArrow=none;startFill=0;startSize=6;endArrow=open;endFill=0;endSize=6;rounded=0;html=1;nl2Br=0;gliffyId=3235;exitX=1.0;exitY=0.5944442749023438;exitPerimeter=0;entryX=0.0;entryY=0.7071067690849304;entryPerimeter=0;" parent="2" source="13" target="10" edge="1">
          <mxGeometry width="2" height="102" relative="1" as="geometry">
            <Array as="points">
              <mxPoint x="355" y="414.33331298828125" />
              <mxPoint x="475" y="361.09307861328125" />
            </Array>
          </mxGeometry>
        </mxCell>
        <mxCell id="125" value="&lt;div style=&#39;width: 29.0125px;height:auto;word-break: break-word;&#39;&gt;&lt;div align=&quot;center&quot;&gt;&lt;span style=&quot;font-size:12px;font-family:Arial;color:rgb(0, 0, 0); line-height: 0;&quot;&gt;&lt;span style=&quot; line-height: normal;&quot;&gt;0..*&lt;/span&gt;&lt;/span&gt;&lt;/div&gt;&lt;/div&gt;" style="text;html=1;nl2Br=0;points=[];labelBackgroundColor=#FFFFFF;html=1;nl2Br=0;verticalAlign=middle;align=center;spacingLeft=0.0;spacingRight=0;gliffyId=3236;" parent="124" vertex="1">
          <mxGeometry x="0.6300995386764705" relative="1" as="geometry">
            <mxPoint y="20" as="offset" />
          </mxGeometry>
        </mxCell>
        <mxCell id="126" value="&lt;div style=&#39;width: 29.0125px;height:auto;word-break: break-word;&#39;&gt;&lt;div align=&quot;center&quot;&gt;&lt;span style=&quot;font-size:12px;font-family:Arial; line-height: 0;&quot;&gt;&lt;span style=&quot; line-height: normal;&quot;&gt;0..*&lt;/span&gt;&lt;/span&gt;&lt;/div&gt;&lt;/div&gt;" style="text;html=1;nl2Br=0;points=[];labelBackgroundColor=#FFFFFF;html=1;nl2Br=0;verticalAlign=middle;align=center;spacingLeft=0.0;spacingRight=0;gliffyId=3237;" parent="124" vertex="1">
          <mxGeometry x="-0.8037407584322929" relative="1" as="geometry">
            <mxPoint y="20" as="offset" />
          </mxGeometry>
        </mxCell>
        <mxCell id="127" value="&lt;div style=&#39;width: 61.0375px;height:auto;word-break: break-word;&#39;&gt;&lt;div align=&quot;center&quot;&gt;&lt;span style=&quot;font-size:12px;font-family:Arial; line-height: 0;&quot;&gt;&lt;span style=&quot; line-height: normal;&quot;&gt;agrees to&lt;/span&gt;&lt;/span&gt;&lt;/div&gt;&lt;/div&gt;" style="text;html=1;nl2Br=0;points=[];labelBackgroundColor=#FFFFFF;html=1;nl2Br=0;verticalAlign=middle;align=center;spacingLeft=0.0;spacingRight=0;gliffyId=3238;" parent="124" vertex="1">
          <mxGeometry x="-0.12727272727272732" relative="1" as="geometry">
            <mxPoint as="offset" />
          </mxGeometry>
        </mxCell>
        <mxCell id="128" style="shape=filledEdge;strokeWidth=2;strokeColor=#000000;fillColor=none;startArrow=none;startFill=0;startSize=6;endArrow=open;endFill=0;endSize=6;rounded=0;html=1;nl2Br=0;gliffyId=3383;edgeStyle=orthogonalEdgeStyle;" parent="2" source="10" target="5" edge="1">
          <mxGeometry width="2" height="102" relative="1" as="geometry">
            <Array as="points">
              <mxPoint x="595" y="348.6666564941406" />
              <mxPoint x="660" y="348.6666564941406" />
              <mxPoint x="660" y="506.397705078125" />
              <mxPoint x="890" y="506.397705078125" />
            </Array>
          </mxGeometry>
        </mxCell>
        <mxCell id="129" value="&lt;div style=&#39;width: 29.0125px;height:auto;word-break: break-word;&#39;&gt;&lt;div align=&quot;center&quot;&gt;&lt;span style=&quot;font-size:12px;font-family:Arial;color:rgb(0, 0, 0); line-height: 0;&quot;&gt;&lt;span style=&quot; line-height: normal;&quot;&gt;0..*&lt;/span&gt;&lt;/span&gt;&lt;/div&gt;&lt;/div&gt;" style="text;html=1;nl2Br=0;points=[];labelBackgroundColor=#FFFFFF;html=1;nl2Br=0;verticalAlign=middle;align=center;spacingLeft=0.0;spacingRight=0;gliffyId=3384;" parent="128" vertex="1">
          <mxGeometry x="0.8696112684240853" relative="1" as="geometry">
            <mxPoint as="offset" />
          </mxGeometry>
        </mxCell>
        <mxCell id="130" value="&lt;div style=&#39;width: 29.0125px;height:auto;word-break: break-word;&#39;&gt;&lt;div align=&quot;center&quot;&gt;&lt;span style=&quot;font-size:12px;font-family:Arial; line-height: 0;&quot;&gt;&lt;span style=&quot; line-height: normal;&quot;&gt;0..*&lt;/span&gt;&lt;/span&gt;&lt;/div&gt;&lt;/div&gt;" style="text;html=1;nl2Br=0;points=[];labelBackgroundColor=#FFFFFF;html=1;nl2Br=0;verticalAlign=middle;align=center;spacingLeft=0.0;spacingRight=0;gliffyId=3385;" parent="128" vertex="1">
          <mxGeometry x="-0.9098982521241404" relative="1" as="geometry">
            <mxPoint as="offset" />
          </mxGeometry>
        </mxCell>
        <mxCell id="131" value="&lt;div style=&#39;width: 109.7375px;height:auto;word-break: break-word;&#39;&gt;&lt;div align=&quot;center&quot;&gt;&lt;span style=&quot;font-size:12px;font-family:Arial; line-height: 0;&quot;&gt;&lt;span style=&quot; line-height: normal;&quot;&gt;governs the use of&lt;/span&gt;&lt;/span&gt;&lt;/div&gt;&lt;/div&gt;" style="text;html=1;nl2Br=0;points=[];labelBackgroundColor=#FFFFFF;html=1;nl2Br=0;verticalAlign=middle;align=center;spacingLeft=0.0;spacingRight=0;gliffyId=3386;" parent="128" vertex="1">
          <mxGeometry x="0.4679076424775448" relative="1" as="geometry">
            <mxPoint as="offset" />
          </mxGeometry>
        </mxCell>
        <mxCell id="132" style="shape=filledEdge;strokeWidth=2;strokeColor=#000000;fillColor=none;startArrow=none;startFill=0;startSize=6;endArrow=open;endFill=0;endSize=6;rounded=0;html=1;nl2Br=0;gliffyId=3240;edgeStyle=orthogonalEdgeStyle;" parent="2" source="10" target="31" edge="1">
          <mxGeometry width="2" height="102" relative="1" as="geometry">
            <Array as="points">
              <mxPoint x="535" y="378.6666564941406" />
              <mxPoint x="535" y="415.33331298828125" />
              <mxPoint x="535" y="452" />
              <mxPoint x="535" y="488.6666564941406" />
            </Array>
          </mxGeometry>
        </mxCell>
        <mxCell id="133" value="&lt;div style=&#39;width: 29.0125px;height:auto;word-break: break-word;&#39;&gt;&lt;div align=&quot;center&quot;&gt;&lt;span style=&quot;font-size:12px;font-family:Arial;color:rgb(0, 0, 0); line-height: 0;&quot;&gt;&lt;span style=&quot; line-height: normal;&quot;&gt;0..*&lt;/span&gt;&lt;/span&gt;&lt;/div&gt;&lt;/div&gt;" style="text;html=1;nl2Br=0;points=[];labelBackgroundColor=#FFFFFF;html=1;nl2Br=0;verticalAlign=middle;align=center;spacingLeft=0.0;spacingRight=0;gliffyId=3241;" parent="132" vertex="1">
          <mxGeometry x="0.8125118191841192" relative="1" as="geometry">
            <mxPoint y="20" as="offset" />
          </mxGeometry>
        </mxCell>
        <mxCell id="134" value="&lt;div style=&#39;width: 29.0125px;height:auto;word-break: break-word;&#39;&gt;&lt;div align=&quot;center&quot;&gt;&lt;span style=&quot;font-size:12px;font-family:Arial; line-height: 0;&quot;&gt;&lt;span style=&quot; line-height: normal;&quot;&gt;0..*&lt;/span&gt;&lt;/span&gt;&lt;/div&gt;&lt;/div&gt;" style="text;html=1;nl2Br=0;points=[];labelBackgroundColor=#FFFFFF;html=1;nl2Br=0;verticalAlign=middle;align=center;spacingLeft=0.0;spacingRight=0;gliffyId=3242;" parent="132" vertex="1">
          <mxGeometry x="-0.8037407584322929" relative="1" as="geometry">
            <mxPoint y="20" as="offset" />
          </mxGeometry>
        </mxCell>
        <mxCell id="135" value="&lt;div style=&#39;width: 50.35px;height:auto;word-break: break-word;&#39;&gt;&lt;div align=&quot;center&quot;&gt;&lt;span style=&quot;font-size:12px;font-family:Arial; line-height: 0;&quot;&gt;&lt;span style=&quot; line-height: normal;&quot;&gt;informs&lt;/span&gt;&lt;/span&gt;&lt;/div&gt;&lt;/div&gt;" style="text;html=1;nl2Br=0;points=[];labelBackgroundColor=#FFFFFF;html=1;nl2Br=0;verticalAlign=middle;align=center;spacingLeft=0.0;spacingRight=0;gliffyId=3243;" parent="132" vertex="1">
          <mxGeometry x="-0.12727272727272732" relative="1" as="geometry">
            <mxPoint as="offset" />
          </mxGeometry>
        </mxCell>
        <mxCell id="136" style="shape=filledEdge;strokeWidth=2;strokeColor=#000000;fillColor=none;startArrow=none;startFill=0;startSize=6;endArrow=open;endFill=0;endSize=6;rounded=0;html=1;nl2Br=0;gliffyId=3143;edgeStyle=orthogonalEdgeStyle;" parent="2" source="5" target="4" edge="1">
          <mxGeometry width="2" height="102" relative="1" as="geometry">
            <Array as="points">
              <mxPoint x="981" y="488.85546875" />
              <mxPoint x="981" y="455.4591979980469" />
              <mxPoint x="981" y="422.06292724609375" />
              <mxPoint x="981" y="388.66668701171875" />
            </Array>
          </mxGeometry>
        </mxCell>
        <mxCell id="137" value="&lt;div style=&#39;width: 29.0125px;height:auto;word-break: break-word;&#39;&gt;&lt;div align=&quot;center&quot;&gt;&lt;span style=&quot;font-size:12px;font-family:Arial;color:rgb(0, 0, 0); line-height: 0;&quot;&gt;&lt;span style=&quot; line-height: normal;&quot;&gt;0..*&lt;/span&gt;&lt;/span&gt;&lt;/div&gt;&lt;/div&gt;" style="text;html=1;nl2Br=0;points=[];labelBackgroundColor=#FFFFFF;html=1;nl2Br=0;verticalAlign=middle;align=center;spacingLeft=0.0;spacingRight=0;gliffyId=3144;" parent="136" vertex="1">
          <mxGeometry x="0.7167594219070059" relative="1" as="geometry">
            <mxPoint y="-20" as="offset" />
          </mxGeometry>
        </mxCell>
        <mxCell id="138" value="&lt;div style=&#39;width: 29.0125px;height:auto;word-break: break-word;&#39;&gt;&lt;div align=&quot;center&quot;&gt;&lt;span style=&quot;font-size:12px;font-family:Arial; line-height: 0;&quot;&gt;&lt;span style=&quot; line-height: normal;&quot;&gt;0..*&lt;/span&gt;&lt;/span&gt;&lt;/div&gt;&lt;/div&gt;" style="text;html=1;nl2Br=0;points=[];labelBackgroundColor=#FFFFFF;html=1;nl2Br=0;verticalAlign=middle;align=center;spacingLeft=0.0;spacingRight=0;gliffyId=3145;" parent="136" vertex="1">
          <mxGeometry x="-0.720527535968627" relative="1" as="geometry">
            <mxPoint y="-20" as="offset" />
          </mxGeometry>
        </mxCell>
        <mxCell id="139" value="&lt;div style=&#39;width: 60.375px;height:auto;word-break: break-word;&#39;&gt;&lt;div align=&quot;center&quot;&gt;&lt;span style=&quot;font-size:12px;font-family:Arial; line-height: 0;&quot;&gt;&lt;span style=&quot; line-height: normal;&quot;&gt;produces&lt;/span&gt;&lt;/span&gt;&lt;/div&gt;&lt;/div&gt;" style="text;html=1;nl2Br=0;points=[];labelBackgroundColor=#FFFFFF;html=1;nl2Br=0;verticalAlign=middle;align=center;spacingLeft=0.0;spacingRight=0;gliffyId=3146;" parent="136" vertex="1">
          <mxGeometry x="0.19773913156302747" relative="1" as="geometry">
            <mxPoint as="offset" />
          </mxGeometry>
        </mxCell>
        <mxCell id="140" value="&lt;div style=&#39;width: 867.0px;height:auto;word-break: break-word;&#39;&gt;&lt;div align=&quot;center&quot;&gt;&lt;span style=&quot;font-size:14px;font-family:Arial; line-height: normal;&quot;&gt;Note: All GSIM classes except &lt;span style=&quot;font-style:italic; line-height: normal;&quot;&gt;Administrative Details, Agent In Role, Change Event, Datum, Process Input&lt;/span&gt; and &lt;span style=&quot;font-style:italic; line-height: normal;&quot;&gt;Process Output&lt;/span&gt; are a sub-type of &lt;span style=&quot;font-style:italic; line-height: normal;&quot;&gt;Identifiable Artefact&lt;/span&gt;; these relationships are not shown in the above diagram.&lt;span style=&quot;text-decoration:none; line-height: normal;&quot;&gt;&lt;br /&gt;&lt;/span&gt;&lt;/span&gt;&lt;/div&gt;&lt;/div&gt;" style="text;html=1;nl2Br=0;html=1;nl2Br=0;verticalAlign=middle;align=center;spacingLeft=0.0;spacingRight=0;whiteSpace=wrap;gliffyId=3157;" parent="2" vertex="1">
          <mxGeometry x="424" y="1376.5" width="870" height="33" as="geometry" />
        </mxCell>
        <mxCell id="141" style="shape=filledEdge;strokeWidth=2;strokeColor=#000000;fillColor=none;startArrow=none;startFill=0;startSize=6;endArrow=block;endFill=0;endSize=6;rounded=0;gliffyId=3190;exitX=0.5;exitY=0.0;exitPerimeter=0;entryX=0.2928932309150696;entryY=1.0;entryPerimeter=0;" parent="2" source="6" target="5" edge="1">
          <mxGeometry width="136" height="96" relative="1" as="geometry">
            <Array as="points">
              <mxPoint x="795" y="648.1666870117188" />
              <mxPoint x="925.147216796875" y="548.6666870117188" />
            </Array>
          </mxGeometry>
        </mxCell>
        <mxCell id="142" style="shape=filledEdge;strokeWidth=2;strokeColor=#000000;fillColor=none;startArrow=none;startFill=0;startSize=6;endArrow=block;endFill=0;endSize=6;rounded=0;gliffyId=3276;edgeStyle=orthogonalEdgeStyle;" parent="2" source="18" target="31" edge="1">
          <mxGeometry width="136" height="96" relative="1" as="geometry">
            <Array as="points">
              <mxPoint x="535" y="648.1666870117188" />
              <mxPoint x="535" y="548.6666870117188" />
            </Array>
          </mxGeometry>
        </mxCell>
        <mxCell id="143" style="shape=filledEdge;strokeWidth=2;strokeColor=#000000;fillColor=none;startArrow=none;startFill=0;startSize=6;endArrow=block;endFill=0;endSize=6;rounded=0;gliffyId=3371;edgeStyle=orthogonalEdgeStyle;" parent="2" source="19" target="21" edge="1">
          <mxGeometry width="136" height="96" relative="1" as="geometry">
            <Array as="points">
              <mxPoint x="370" y="815" />
              <mxPoint x="475" y="815" />
            </Array>
          </mxGeometry>
        </mxCell>
        <mxCell id="144" style="shape=filledEdge;strokeWidth=2;strokeColor=#000000;fillColor=none;startArrow=none;startFill=0;startSize=6;endArrow=block;endFill=0;endSize=6;rounded=0;gliffyId=3193;edgeStyle=orthogonalEdgeStyle;" parent="2" source="7" target="5" edge="1">
          <mxGeometry width="136" height="96" relative="1" as="geometry">
            <Array as="points">
              <mxPoint x="950" y="648.1666870117188" />
              <mxPoint x="950" y="548.6666870117188" />
            </Array>
          </mxGeometry>
        </mxCell>
        <mxCell id="145" style="shape=filledEdge;strokeWidth=2;strokeColor=#000000;fillColor=none;startArrow=none;startFill=0;startSize=6;endArrow=block;endFill=0;endSize=6;rounded=0;gliffyId=3194;exitX=0.2928932309150696;exitY=0.0;exitPerimeter=0;entryX=0.7071067690849304;entryY=1.0;entryPerimeter=0;" parent="2" source="8" target="5" edge="1">
          <mxGeometry width="136" height="96" relative="1" as="geometry">
            <Array as="points">
              <mxPoint x="1080.147216796875" y="648.1666870117188" />
              <mxPoint x="974.852783203125" y="548.6666870117188" />
            </Array>
          </mxGeometry>
        </mxCell>
        <mxCell id="146" style="shape=filledEdge;strokeWidth=2;strokeColor=#000000;fillColor=none;startArrow=none;startFill=0;startSize=6;endArrow=block;endFill=0;endSize=6;rounded=0;gliffyId=3226;exitX=0.0;exitY=0.5;exitPerimeter=0;entryX=1.0;entryY=0.7071067690849304;entryPerimeter=0;" parent="2" source="13" target="12" edge="1">
          <mxGeometry width="136" height="96" relative="1" as="geometry">
            <Array as="points">
              <mxPoint x="235" y="408.66668701171875" />
              <mxPoint x="170" y="361.09307861328125" />
            </Array>
          </mxGeometry>
        </mxCell>
        <mxCell id="147" style="shape=filledEdge;strokeWidth=2;strokeColor=#000000;fillColor=none;startArrow=none;startFill=0;startSize=6;endArrow=block;endFill=0;endSize=6;rounded=0;gliffyId=3227;exitX=0.0;exitY=0.5;exitPerimeter=0;entryX=1.0;entryY=0.2928932309150696;entryPerimeter=0;" parent="2" source="11" target="12" edge="1">
          <mxGeometry width="136" height="96" relative="1" as="geometry">
            <Array as="points">
              <mxPoint x="235" y="288.66668701171875" />
              <mxPoint x="170" y="336.2402648925781" />
            </Array>
          </mxGeometry>
        </mxCell>
        <mxCell id="148" style="shape=filledEdge;strokeWidth=1;strokeColor=#000000;fillColor=none;startArrow=none;startFill=0;startSize=6;endArrow=diamond;endFill=1;endSize=12;rounded=0;html=1;nl2Br=0;gliffyId=3265;edgeStyle=orthogonalEdgeStyle;" parent="2" source="18" target="6" edge="1">
          <mxGeometry width="100" height="100" relative="1" as="geometry">
            <Array as="points">
              <mxPoint x="595" y="678.1666870117188" />
              <mxPoint x="641.6666870117188" y="678.1666870117188" />
              <mxPoint x="688.3333129882812" y="678.1666870117188" />
              <mxPoint x="735" y="678.1666870117188" />
            </Array>
          </mxGeometry>
        </mxCell>
        <mxCell id="149" value="&lt;div style=&#39;width: 29.0125px;height:auto;word-break: break-word;&#39;&gt;&lt;div align=&quot;center&quot;&gt;&lt;span style=&quot;font-size:12px;font-family:Arial; line-height: 0;&quot;&gt;&lt;span style=&quot; line-height: normal;&quot;&gt;0..*&lt;/span&gt;&lt;/span&gt;&lt;/div&gt;&lt;/div&gt;" style="text;html=1;nl2Br=0;points=[];labelBackgroundColor=#FFFFFF;html=1;nl2Br=0;verticalAlign=middle;align=center;spacingLeft=0.0;spacingRight=0;gliffyId=3268;" parent="148" vertex="1">
          <mxGeometry x="0.6714285714285715" relative="1" as="geometry">
            <mxPoint y="-20" as="offset" />
          </mxGeometry>
        </mxCell>
        <mxCell id="150" value="&lt;div style=&#39;width: 17.675px;height:auto;word-break: break-word;&#39;&gt;&lt;div align=&quot;center&quot;&gt;&lt;span style=&quot;font-size:12px;font-family:Arial; line-height: 0;&quot;&gt;&lt;span style=&quot; line-height: normal;&quot;&gt;1&lt;/span&gt;&lt;/span&gt;&lt;/div&gt;&lt;/div&gt;" style="text;html=1;nl2Br=0;points=[];labelBackgroundColor=#FFFFFF;html=1;nl2Br=0;verticalAlign=middle;align=center;spacingLeft=0.0;spacingRight=0;gliffyId=3267;" parent="148" vertex="1">
          <mxGeometry x="-0.7857142857142857" relative="1" as="geometry">
            <mxPoint y="-20" as="offset" />
          </mxGeometry>
        </mxCell>
        <mxCell id="151" value="&lt;div style=&#39;width: 55.0375px;height:auto;word-break: break-word;&#39;&gt;&lt;div align=&quot;center&quot;&gt;&lt;span style=&quot;font-size:12px;font-family:Arial; line-height: 0;&quot;&gt;&lt;span style=&quot; line-height: normal;&quot;&gt;includes&lt;/span&gt;&lt;/span&gt;&lt;/div&gt;&lt;/div&gt;" style="text;html=1;nl2Br=0;points=[];labelBackgroundColor=#FFFFFF;html=1;nl2Br=0;verticalAlign=middle;align=center;spacingLeft=0.0;spacingRight=0;gliffyId=3266;" parent="148" vertex="1">
          <mxGeometry x="-0.09999999999999998" relative="1" as="geometry">
            <mxPoint as="offset" />
          </mxGeometry>
        </mxCell>
        <mxCell id="152" style="shape=filledEdge;strokeWidth=2;strokeColor=#000000;fillColor=none;startArrow=none;startFill=0;startSize=6;endArrow=diamond;endFill=1;endSize=12;rounded=0;html=1;nl2Br=0;gliffyId=3344;edgeStyle=orthogonalEdgeStyle;" parent="2" source="20" target="21" edge="1">
          <mxGeometry width="100" height="100" relative="1" as="geometry">
            <Array as="points">
              <mxPoint x="334.8528137207031" y="945" />
              <mxPoint x="334.8528137207031" y="895" />
              <mxPoint x="510.1471862792969" y="895" />
              <mxPoint x="510.1471862792969" y="845" />
            </Array>
          </mxGeometry>
        </mxCell>
        <mxCell id="153" value="&lt;div style=&#39;width: 17.675px;height:auto;word-break: break-word;&#39;&gt;&lt;div align=&quot;center&quot;&gt;&lt;span style=&quot;font-size:12px;font-family:Arial; line-height: 0;&quot;&gt;&lt;span style=&quot; line-height: normal;&quot;&gt;1&lt;/span&gt;&lt;/span&gt;&lt;/div&gt;&lt;/div&gt;" style="text;html=1;nl2Br=0;points=[];labelBackgroundColor=#FFFFFF;html=1;nl2Br=0;verticalAlign=middle;align=center;spacingLeft=0.0;spacingRight=0;gliffyId=3345;" parent="152" vertex="1">
          <mxGeometry x="0.8670922885340375" relative="1" as="geometry">
            <mxPoint y="-20" as="offset" />
          </mxGeometry>
        </mxCell>
        <mxCell id="154" value="&lt;div style=&#39;width: 29.0125px;height:auto;word-break: break-word;&#39;&gt;&lt;div align=&quot;center&quot;&gt;&lt;span style=&quot;font-size:12px;font-family:Arial; line-height: 0;&quot;&gt;&lt;span style=&quot; line-height: normal;&quot;&gt;0..*&lt;/span&gt;&lt;/span&gt;&lt;/div&gt;&lt;/div&gt;" style="text;html=1;nl2Br=0;points=[];labelBackgroundColor=#FFFFFF;html=1;nl2Br=0;verticalAlign=middle;align=center;spacingLeft=0.0;spacingRight=0;gliffyId=3346;" parent="152" vertex="1">
          <mxGeometry x="-0.9128205935314846" relative="1" as="geometry">
            <mxPoint y="20" as="offset" />
          </mxGeometry>
        </mxCell>
        <mxCell id="155" value="&lt;div style=&#39;width: 55.0375px;height:auto;word-break: break-word;&#39;&gt;&lt;div align=&quot;center&quot;&gt;&lt;span style=&quot;font-size:12px;font-family:Arial; line-height: 0;&quot;&gt;&lt;span style=&quot; line-height: normal;&quot;&gt;includes&lt;/span&gt;&lt;/span&gt;&lt;/div&gt;&lt;/div&gt;" style="text;html=1;nl2Br=0;points=[];labelBackgroundColor=#FFFFFF;html=1;nl2Br=0;verticalAlign=middle;align=center;spacingLeft=0.0;spacingRight=0;gliffyId=3347;" parent="152" vertex="1">
          <mxGeometry x="-0.09999999999999998" relative="1" as="geometry">
            <mxPoint as="offset" />
          </mxGeometry>
        </mxCell>
        <mxCell id="156" style="shape=filledEdge;strokeWidth=2;strokeColor=#000000;fillColor=none;startArrow=none;startFill=0;startSize=6;endArrow=diamond;endFill=1;endSize=12;rounded=0;html=1;nl2Br=0;gliffyId=3348;edgeStyle=orthogonalEdgeStyle;" parent="2" source="23" target="21" edge="1">
          <mxGeometry width="100" height="100" relative="1" as="geometry">
            <Array as="points">
              <mxPoint x="535" y="945" />
              <mxPoint x="535" y="911.6666870117188" />
              <mxPoint x="535" y="878.3333129882812" />
              <mxPoint x="535" y="845" />
            </Array>
          </mxGeometry>
        </mxCell>
        <mxCell id="157" value="&lt;div style=&#39;width: 17.675px;height:auto;word-break: break-word;&#39;&gt;&lt;div align=&quot;center&quot;&gt;&lt;span style=&quot;font-size:12px;font-family:Arial; line-height: 0;&quot;&gt;&lt;span style=&quot; line-height: normal;&quot;&gt;1&lt;/span&gt;&lt;/span&gt;&lt;/div&gt;&lt;/div&gt;" style="text;html=1;nl2Br=0;points=[];labelBackgroundColor=#FFFFFF;html=1;nl2Br=0;verticalAlign=middle;align=center;spacingLeft=0.0;spacingRight=0;gliffyId=3349;" parent="156" vertex="1">
          <mxGeometry x="0.3400000000000001" relative="1" as="geometry">
            <mxPoint as="offset" />
          </mxGeometry>
        </mxCell>
        <mxCell id="158" value="&lt;div style=&#39;width: 29.0125px;height:auto;word-break: break-word;&#39;&gt;&lt;div align=&quot;center&quot;&gt;&lt;span style=&quot;font-size:12px;font-family:Arial; line-height: 0;&quot;&gt;&lt;span style=&quot; line-height: normal;&quot;&gt;0..*&lt;/span&gt;&lt;/span&gt;&lt;/div&gt;&lt;/div&gt;" style="text;html=1;nl2Br=0;points=[];labelBackgroundColor=#FFFFFF;html=1;nl2Br=0;verticalAlign=middle;align=center;spacingLeft=0.0;spacingRight=0;gliffyId=3350;" parent="156" vertex="1">
          <mxGeometry x="-0.72" relative="1" as="geometry">
            <mxPoint y="20" as="offset" />
          </mxGeometry>
        </mxCell>
        <mxCell id="159" value="&lt;div style=&#39;width: 55.0375px;height:auto;word-break: break-word;&#39;&gt;&lt;div align=&quot;center&quot;&gt;&lt;span style=&quot;font-size:12px;font-family:Arial; line-height: 0;&quot;&gt;&lt;span style=&quot; line-height: normal;&quot;&gt;includes&lt;/span&gt;&lt;/span&gt;&lt;/div&gt;&lt;/div&gt;" style="text;html=1;nl2Br=0;points=[];labelBackgroundColor=#FFFFFF;html=1;nl2Br=0;verticalAlign=middle;align=center;spacingLeft=0.0;spacingRight=0;gliffyId=3351;" parent="156" vertex="1">
          <mxGeometry x="-0.26" relative="1" as="geometry">
            <mxPoint as="offset" />
          </mxGeometry>
        </mxCell>
        <mxCell id="160" style="shape=filledEdge;strokeWidth=2;strokeColor=#000000;fillColor=none;startArrow=none;startFill=0;startSize=6;endArrow=diamond;endFill=1;endSize=12;rounded=0;html=1;nl2Br=0;gliffyId=3352;edgeStyle=orthogonalEdgeStyle;" parent="2" source="24" target="21" edge="1">
          <mxGeometry width="100" height="100" relative="1" as="geometry">
            <Array as="points">
              <mxPoint x="735" y="945" />
              <mxPoint x="735" y="895" />
              <mxPoint x="559.852783203125" y="895" />
              <mxPoint x="559.852783203125" y="845" />
            </Array>
          </mxGeometry>
        </mxCell>
        <mxCell id="161" value="&lt;div style=&#39;width: 17.675px;height:auto;word-break: break-word;&#39;&gt;&lt;div align=&quot;center&quot;&gt;&lt;span style=&quot;font-size:12px;font-family:Arial; line-height: 0;&quot;&gt;&lt;span style=&quot; line-height: normal;&quot;&gt;1&lt;/span&gt;&lt;/span&gt;&lt;/div&gt;&lt;/div&gt;" style="text;html=1;nl2Br=0;points=[];labelBackgroundColor=#FFFFFF;html=1;nl2Br=0;verticalAlign=middle;align=center;spacingLeft=0.0;spacingRight=0;gliffyId=3353;" parent="160" vertex="1">
          <mxGeometry x="0.9044352483742657" relative="1" as="geometry">
            <mxPoint y="-20" as="offset" />
          </mxGeometry>
        </mxCell>
        <mxCell id="162" value="&lt;div style=&#39;width: 29.0125px;height:auto;word-break: break-word;&#39;&gt;&lt;div align=&quot;center&quot;&gt;&lt;span style=&quot;font-size:12px;font-family:Arial; line-height: 0;&quot;&gt;&lt;span style=&quot; line-height: normal;&quot;&gt;0..*&lt;/span&gt;&lt;/span&gt;&lt;/div&gt;&lt;/div&gt;" style="text;html=1;nl2Br=0;points=[];labelBackgroundColor=#FFFFFF;html=1;nl2Br=0;verticalAlign=middle;align=center;spacingLeft=0.0;spacingRight=0;gliffyId=3354;" parent="160" vertex="1">
          <mxGeometry x="-0.9128205935314846" relative="1" as="geometry">
            <mxPoint y="-20" as="offset" />
          </mxGeometry>
        </mxCell>
        <mxCell id="163" value="&lt;div style=&#39;width: 55.0375px;height:auto;word-break: break-word;&#39;&gt;&lt;div align=&quot;center&quot;&gt;&lt;span style=&quot;font-size:12px;font-family:Arial; line-height: 0;&quot;&gt;&lt;span style=&quot; line-height: normal;&quot;&gt;includes&lt;/span&gt;&lt;/span&gt;&lt;/div&gt;&lt;/div&gt;" style="text;html=1;nl2Br=0;points=[];labelBackgroundColor=#FFFFFF;html=1;nl2Br=0;verticalAlign=middle;align=center;spacingLeft=0.0;spacingRight=0;gliffyId=3355;" parent="160" vertex="1">
          <mxGeometry x="-0.09999999999999998" relative="1" as="geometry">
            <mxPoint as="offset" />
          </mxGeometry>
        </mxCell>
        <mxCell id="164" style="shape=filledEdge;strokeWidth=2;strokeColor=#000000;fillColor=none;startArrow=none;startFill=0;startSize=6;endArrow=diamond;endFill=1;endSize=12;rounded=0;html=1;nl2Br=0;gliffyId=3363;edgeStyle=orthogonalEdgeStyle;" parent="2" source="21" target="18" edge="1">
          <mxGeometry width="100" height="100" relative="1" as="geometry">
            <Array as="points">
              <mxPoint x="535" y="785" />
              <mxPoint x="535" y="759.388916015625" />
              <mxPoint x="535" y="733.7777709960938" />
              <mxPoint x="535" y="708.1666870117188" />
            </Array>
          </mxGeometry>
        </mxCell>
        <mxCell id="165" value="&lt;div style=&#39;width: 29.0125px;height:auto;word-break: break-word;&#39;&gt;&lt;div align=&quot;center&quot;&gt;&lt;span style=&quot;font-size:12px;font-family:Arial; line-height: 0;&quot;&gt;&lt;span style=&quot; line-height: normal;&quot;&gt;0..*&lt;/span&gt;&lt;/span&gt;&lt;/div&gt;&lt;/div&gt;" style="text;html=1;nl2Br=0;points=[];labelBackgroundColor=#FFFFFF;html=1;nl2Br=0;verticalAlign=middle;align=center;spacingLeft=0.0;spacingRight=0;gliffyId=3364;" parent="164" vertex="1">
          <mxGeometry x="0.5357918587172408" relative="1" as="geometry">
            <mxPoint y="20" as="offset" />
          </mxGeometry>
        </mxCell>
        <mxCell id="166" value="&lt;div style=&#39;width: 17.675px;height:auto;word-break: break-word;&#39;&gt;&lt;div align=&quot;center&quot;&gt;&lt;span style=&quot;font-size:12px;font-family:Arial; line-height: 0;&quot;&gt;&lt;span style=&quot; line-height: normal;&quot;&gt;1&lt;/span&gt;&lt;/span&gt;&lt;/div&gt;&lt;/div&gt;" style="text;html=1;nl2Br=0;points=[];labelBackgroundColor=#FFFFFF;html=1;nl2Br=0;verticalAlign=middle;align=center;spacingLeft=0.0;spacingRight=0;gliffyId=3365;" parent="164" vertex="1">
          <mxGeometry x="-0.72" relative="1" as="geometry">
            <mxPoint y="20" as="offset" />
          </mxGeometry>
        </mxCell>
        <mxCell id="167" value="&lt;div style=&#39;width: 55.0375px;height:auto;word-break: break-word;&#39;&gt;&lt;div align=&quot;center&quot;&gt;&lt;span style=&quot;font-size:12px;font-family:Arial; line-height: 0;&quot;&gt;&lt;span style=&quot; line-height: normal;&quot;&gt;includes&lt;/span&gt;&lt;/span&gt;&lt;/div&gt;&lt;/div&gt;" style="text;html=1;nl2Br=0;points=[];labelBackgroundColor=#FFFFFF;html=1;nl2Br=0;verticalAlign=middle;align=center;spacingLeft=0.0;spacingRight=0;gliffyId=3366;" parent="164" vertex="1">
          <mxGeometry x="-0.036876291990882826" relative="1" as="geometry">
            <mxPoint as="offset" />
          </mxGeometry>
        </mxCell>
        <mxCell id="168" style="shape=filledEdge;strokeWidth=2;strokeColor=#000000;fillColor=none;startArrow=none;startFill=0;startSize=6;endArrow=diamond;endFill=0;endSize=12;rounded=0;html=1;nl2Br=0;gliffyId=3340;edgeStyle=orthogonalEdgeStyle;" parent="2" source="22" target="21" edge="1">
          <mxGeometry width="100" height="100" relative="1" as="geometry">
            <Array as="points">
              <mxPoint x="735" y="827.4263916015625" />
              <mxPoint x="688.3333129882812" y="827.4263916015625" />
              <mxPoint x="641.6666870117188" y="827.4263916015625" />
              <mxPoint x="595" y="827.4263916015625" />
            </Array>
          </mxGeometry>
        </mxCell>
        <mxCell id="169" value="&lt;div style=&#39;width: 27.6875px;height:auto;word-break: break-word;&#39;&gt;&lt;div align=&quot;center&quot;&gt;&lt;span style=&quot;font-size:12px;font-family:Arial; line-height: 0;&quot;&gt;&lt;span style=&quot; line-height: normal;&quot;&gt;0,1&lt;/span&gt;&lt;/span&gt;&lt;/div&gt;&lt;/div&gt;" style="text;html=1;nl2Br=0;points=[];labelBackgroundColor=#FFFFFF;html=1;nl2Br=0;verticalAlign=middle;align=center;spacingLeft=0.0;spacingRight=0;gliffyId=3343;" parent="168" vertex="1">
          <mxGeometry x="-0.7571428571428571" relative="1" as="geometry">
            <mxPoint y="20" as="offset" />
          </mxGeometry>
        </mxCell>
        <mxCell id="170" value="&lt;div style=&#39;width: 17.675px;height:auto;word-break: break-word;&#39;&gt;&lt;div align=&quot;center&quot;&gt;&lt;span style=&quot;font-size:12px;font-family:Arial; line-height: 0;&quot;&gt;&lt;span style=&quot; line-height: normal;&quot;&gt;1&lt;/span&gt;&lt;/span&gt;&lt;/div&gt;&lt;/div&gt;" style="text;html=1;nl2Br=0;points=[];labelBackgroundColor=#FFFFFF;html=1;nl2Br=0;verticalAlign=middle;align=center;spacingLeft=0.0;spacingRight=0;gliffyId=3342;" parent="168" vertex="1">
          <mxGeometry x="0.6571428571428573" relative="1" as="geometry">
            <mxPoint y="20" as="offset" />
          </mxGeometry>
        </mxCell>
        <mxCell id="171" value="&lt;div style=&#39;width: 30.35px;height:auto;word-break: break-word;&#39;&gt;&lt;div align=&quot;center&quot;&gt;&lt;span style=&quot;font-size:12px;font-family:Arial; line-height: 0;&quot;&gt;&lt;span style=&quot; line-height: normal;&quot;&gt;has&lt;/span&gt;&lt;/span&gt;&lt;/div&gt;&lt;/div&gt;" style="text;html=1;nl2Br=0;points=[];labelBackgroundColor=#FFFFFF;html=1;nl2Br=0;verticalAlign=middle;align=center;spacingLeft=0.0;spacingRight=0;gliffyId=3341;" parent="168" vertex="1">
          <mxGeometry x="-0.09999999999999998" relative="1" as="geometry">
            <mxPoint as="offset" />
          </mxGeometry>
        </mxCell>
      </root>
    </mxGraphModel>
  </diagram>
</mxfile>
